<svg xmlns="http://www.w3.org/2000/svg" width="98" height="39" viewBox="0 0 98 39" fill="none">
<g filter="url(#filter0_d_14_1370)">
<rect x="10" y="5" width="33" height="26" rx="8" fill="#FB7C2F"/>
<g filter="url(#filter1_d_14_1370)">
<rect x="4" width="33" height="26" rx="8" fill="#FB7C2F" fill-opacity="0.2" shape-rendering="crispEdges"/>
</g>
<g filter="url(#filter2_d_14_1370)">
<mask id="path-3-inside-1_14_1370" fill="white">
<path fill-rule="evenodd" clip-rule="evenodd" d="M28.419 19.1596L27.1335 20.5701V23.9982H24V11H27.1335V16.7314L28.2226 15.0798L31.0258 11H34.9003L30.508 16.7492L34.9003 23.9982H31.1865L28.419 19.1596ZM41.9977 23.9982C41.8906 23.8018 41.7953 23.5132 41.712 23.1323C41.1585 23.8286 40.3848 24.1768 39.3909 24.1768C38.4803 24.1768 37.7066 23.903 37.0698 23.3555C36.433 22.802 36.1146 22.1086 36.1146 21.2754C36.1146 20.2279 36.5014 19.4364 37.2751 18.9007C38.0488 18.3651 39.1737 18.0973 40.6497 18.0973H41.5781V17.5884C41.5781 16.7016 41.1942 16.2582 40.4265 16.2582C39.7123 16.2582 39.3552 16.6094 39.3552 17.3116H36.3467C36.3467 16.3772 36.7425 15.6184 37.534 15.0352C38.3315 14.4519 39.3463 14.1603 40.5782 14.1603C41.8102 14.1603 42.7833 14.4608 43.4975 15.062C44.2117 15.6631 44.5777 16.4874 44.5956 17.5348V21.811C44.6075 22.6978 44.7444 23.3763 45.0062 23.8465V23.9982H41.9977ZM40.114 22.0342C40.489 22.0342 40.7985 21.9539 41.0425 21.7932C41.2924 21.6325 41.471 21.451 41.5781 21.2486V19.7042H40.7032C39.6558 19.7042 39.132 20.1744 39.132 21.1147C39.132 21.3885 39.2243 21.6117 39.4088 21.7843C39.5933 21.9509 39.8283 22.0342 40.114 22.0342ZM54.2193 22.8377C54.8977 21.939 55.237 20.7398 55.237 19.24V19.0971C55.237 17.5616 54.9067 16.3564 54.246 15.4815C53.5854 14.6007 52.6599 14.1603 51.4696 14.1603C50.5293 14.1603 49.7705 14.5174 49.1932 15.2316L49.1039 14.3388H46.2918V27.712H49.3003V23.2037C49.8716 23.8524 50.6007 24.1768 51.4875 24.1768C52.6361 24.1768 53.5467 23.7304 54.2193 22.8377ZM50.7287 16.4814C51.7285 16.4814 52.2285 17.3384 52.2285 19.0525V19.3739C52.1987 21.0284 51.7047 21.8557 50.7465 21.8557C50.0442 21.8557 49.5622 21.5879 49.3003 21.0522V17.2492C49.5383 16.7373 50.0145 16.4814 50.7287 16.4814ZM63.3253 22.9537C62.6885 23.7691 61.8285 24.1768 60.7453 24.1768C59.6859 24.1768 58.8825 23.8703 58.3349 23.2573C57.7933 22.6383 57.5225 21.7515 57.5225 20.5969V14.3388H60.531V20.6148C60.531 21.442 60.9328 21.8557 61.7362 21.8557C62.4266 21.8557 62.9176 21.6087 63.2093 21.1147V14.3388H66.2356V23.9982H63.4146L63.3253 22.9537ZM72.5473 20.6683C72.8151 20.8231 72.949 21.0284 72.949 21.2843C72.949 21.5521 72.8449 21.7694 72.6365 21.936C72.4342 22.1027 72.1277 22.186 71.717 22.186C71.2707 22.186 70.9046 22.0848 70.619 21.8825C70.3333 21.6742 70.1845 21.3468 70.1726 20.9004H67.3605C67.3605 21.4658 67.542 22.0045 67.905 22.5163C68.2681 23.0281 68.774 23.4328 69.4227 23.7304C69.9234 23.9601 70.4774 24.1012 71.0845 24.1536V26.3284H72.5185V24.1258C73.3676 24.0227 74.0855 23.7629 74.672 23.3465C75.4576 22.793 75.8504 22.0759 75.8504 21.195C75.8504 19.9036 75.1243 19.0078 73.6721 18.5079C73.2377 18.3591 72.7318 18.2312 72.1545 18.124C71.5831 18.0169 71.1665 17.88 70.9046 17.7134C70.6428 17.5467 70.5118 17.3295 70.5118 17.0617C70.5118 16.7998 70.619 16.5826 70.8332 16.41C71.0475 16.2314 71.3123 16.1422 71.6278 16.1422C72.4431 16.1422 72.8508 16.529 72.8508 17.3027H75.8683C75.8683 16.3624 75.4814 15.6035 74.7077 15.0262C74.1215 14.5888 73.3917 14.3171 72.5185 14.2111V11.9887H71.0845V14.1825C70.1509 14.2603 69.3768 14.5415 68.7621 15.0262C68.03 15.5976 67.664 16.3267 67.664 17.2134C67.664 17.7134 67.792 18.1568 68.0479 18.5436C68.3038 18.9305 68.6758 19.2608 69.1638 19.5346C69.6518 19.8024 70.2708 20.0196 71.0207 20.1863C71.7706 20.3529 72.2794 20.5136 72.5473 20.6683ZM81.7694 11.9374V14.3388H83.3584V16.4278H81.7694V20.8469C81.7694 21.2099 81.8348 21.4629 81.9658 21.6057C82.0967 21.7485 82.3556 21.82 82.7425 21.82C83.04 21.82 83.29 21.8021 83.4924 21.7664V23.9179C82.9508 24.0905 82.3854 24.1768 81.7962 24.1768C80.7606 24.1768 79.9958 23.9328 79.5018 23.4447C79.0078 22.9567 78.7609 22.2157 78.7609 21.2218V16.4278H77.5289V14.3388H78.7609V11.9374H81.7694ZM90.7058 23.1323C90.7891 23.5132 90.8843 23.8018 90.9915 23.9982H94V23.8465C93.7381 23.3763 93.6012 22.6978 93.5893 21.811V17.5348C93.5715 16.4874 93.2055 15.6631 92.4913 15.062C91.7771 14.4608 90.804 14.1603 89.572 14.1603C88.34 14.1603 87.3253 14.4519 86.5278 15.0352C85.7362 15.6184 85.3405 16.3772 85.3405 17.3116H88.349C88.349 16.6094 88.7061 16.2582 89.4203 16.2582C90.188 16.2582 90.5719 16.7016 90.5719 17.5884V18.0973H89.6434C88.1675 18.0973 87.0426 18.3651 86.2689 18.9007C85.4952 19.4364 85.1083 20.2279 85.1083 21.2754C85.1083 22.1086 85.4268 22.802 86.0636 23.3555C86.7004 23.903 87.4741 24.1768 88.3847 24.1768C89.3786 24.1768 90.1523 23.8286 90.7058 23.1323ZM90.0362 21.7932C89.7922 21.9539 89.4827 22.0342 89.1078 22.0342C88.8221 22.0342 88.587 21.9509 88.4025 21.7843C88.218 21.6117 88.1258 21.3885 88.1258 21.1147C88.1258 20.1744 88.6495 19.7042 89.697 19.7042H90.5719V21.2486C90.4648 21.451 90.2862 21.6325 90.0362 21.7932Z"/>
</mask>
<path fill-rule="evenodd" clip-rule="evenodd" d="M28.419 19.1596L27.1335 20.5701V23.9982H24V11H27.1335V16.7314L28.2226 15.0798L31.0258 11H34.9003L30.508 16.7492L34.9003 23.9982H31.1865L28.419 19.1596ZM41.9977 23.9982C41.8906 23.8018 41.7953 23.5132 41.712 23.1323C41.1585 23.8286 40.3848 24.1768 39.3909 24.1768C38.4803 24.1768 37.7066 23.903 37.0698 23.3555C36.433 22.802 36.1146 22.1086 36.1146 21.2754C36.1146 20.2279 36.5014 19.4364 37.2751 18.9007C38.0488 18.3651 39.1737 18.0973 40.6497 18.0973H41.5781V17.5884C41.5781 16.7016 41.1942 16.2582 40.4265 16.2582C39.7123 16.2582 39.3552 16.6094 39.3552 17.3116H36.3467C36.3467 16.3772 36.7425 15.6184 37.534 15.0352C38.3315 14.4519 39.3463 14.1603 40.5782 14.1603C41.8102 14.1603 42.7833 14.4608 43.4975 15.062C44.2117 15.6631 44.5777 16.4874 44.5956 17.5348V21.811C44.6075 22.6978 44.7444 23.3763 45.0062 23.8465V23.9982H41.9977ZM40.114 22.0342C40.489 22.0342 40.7985 21.9539 41.0425 21.7932C41.2924 21.6325 41.471 21.451 41.5781 21.2486V19.7042H40.7032C39.6558 19.7042 39.132 20.1744 39.132 21.1147C39.132 21.3885 39.2243 21.6117 39.4088 21.7843C39.5933 21.9509 39.8283 22.0342 40.114 22.0342ZM54.2193 22.8377C54.8977 21.939 55.237 20.7398 55.237 19.24V19.0971C55.237 17.5616 54.9067 16.3564 54.246 15.4815C53.5854 14.6007 52.6599 14.1603 51.4696 14.1603C50.5293 14.1603 49.7705 14.5174 49.1932 15.2316L49.1039 14.3388H46.2918V27.712H49.3003V23.2037C49.8716 23.8524 50.6007 24.1768 51.4875 24.1768C52.6361 24.1768 53.5467 23.7304 54.2193 22.8377ZM50.7287 16.4814C51.7285 16.4814 52.2285 17.3384 52.2285 19.0525V19.3739C52.1987 21.0284 51.7047 21.8557 50.7465 21.8557C50.0442 21.8557 49.5622 21.5879 49.3003 21.0522V17.2492C49.5383 16.7373 50.0145 16.4814 50.7287 16.4814ZM63.3253 22.9537C62.6885 23.7691 61.8285 24.1768 60.7453 24.1768C59.6859 24.1768 58.8825 23.8703 58.3349 23.2573C57.7933 22.6383 57.5225 21.7515 57.5225 20.5969V14.3388H60.531V20.6148C60.531 21.442 60.9328 21.8557 61.7362 21.8557C62.4266 21.8557 62.9176 21.6087 63.2093 21.1147V14.3388H66.2356V23.9982H63.4146L63.3253 22.9537ZM72.5473 20.6683C72.8151 20.8231 72.949 21.0284 72.949 21.2843C72.949 21.5521 72.8449 21.7694 72.6365 21.936C72.4342 22.1027 72.1277 22.186 71.717 22.186C71.2707 22.186 70.9046 22.0848 70.619 21.8825C70.3333 21.6742 70.1845 21.3468 70.1726 20.9004H67.3605C67.3605 21.4658 67.542 22.0045 67.905 22.5163C68.2681 23.0281 68.774 23.4328 69.4227 23.7304C69.9234 23.9601 70.4774 24.1012 71.0845 24.1536V26.3284H72.5185V24.1258C73.3676 24.0227 74.0855 23.7629 74.672 23.3465C75.4576 22.793 75.8504 22.0759 75.8504 21.195C75.8504 19.9036 75.1243 19.0078 73.6721 18.5079C73.2377 18.3591 72.7318 18.2312 72.1545 18.124C71.5831 18.0169 71.1665 17.88 70.9046 17.7134C70.6428 17.5467 70.5118 17.3295 70.5118 17.0617C70.5118 16.7998 70.619 16.5826 70.8332 16.41C71.0475 16.2314 71.3123 16.1422 71.6278 16.1422C72.4431 16.1422 72.8508 16.529 72.8508 17.3027H75.8683C75.8683 16.3624 75.4814 15.6035 74.7077 15.0262C74.1215 14.5888 73.3917 14.3171 72.5185 14.2111V11.9887H71.0845V14.1825C70.1509 14.2603 69.3768 14.5415 68.7621 15.0262C68.03 15.5976 67.664 16.3267 67.664 17.2134C67.664 17.7134 67.792 18.1568 68.0479 18.5436C68.3038 18.9305 68.6758 19.2608 69.1638 19.5346C69.6518 19.8024 70.2708 20.0196 71.0207 20.1863C71.7706 20.3529 72.2794 20.5136 72.5473 20.6683ZM81.7694 11.9374V14.3388H83.3584V16.4278H81.7694V20.8469C81.7694 21.2099 81.8348 21.4629 81.9658 21.6057C82.0967 21.7485 82.3556 21.82 82.7425 21.82C83.04 21.82 83.29 21.8021 83.4924 21.7664V23.9179C82.9508 24.0905 82.3854 24.1768 81.7962 24.1768C80.7606 24.1768 79.9958 23.9328 79.5018 23.4447C79.0078 22.9567 78.7609 22.2157 78.7609 21.2218V16.4278H77.5289V14.3388H78.7609V11.9374H81.7694ZM90.7058 23.1323C90.7891 23.5132 90.8843 23.8018 90.9915 23.9982H94V23.8465C93.7381 23.3763 93.6012 22.6978 93.5893 21.811V17.5348C93.5715 16.4874 93.2055 15.6631 92.4913 15.062C91.7771 14.4608 90.804 14.1603 89.572 14.1603C88.34 14.1603 87.3253 14.4519 86.5278 15.0352C85.7362 15.6184 85.3405 16.3772 85.3405 17.3116H88.349C88.349 16.6094 88.7061 16.2582 89.4203 16.2582C90.188 16.2582 90.5719 16.7016 90.5719 17.5884V18.0973H89.6434C88.1675 18.0973 87.0426 18.3651 86.2689 18.9007C85.4952 19.4364 85.1083 20.2279 85.1083 21.2754C85.1083 22.1086 85.4268 22.802 86.0636 23.3555C86.7004 23.903 87.4741 24.1768 88.3847 24.1768C89.3786 24.1768 90.1523 23.8286 90.7058 23.1323ZM90.0362 21.7932C89.7922 21.9539 89.4827 22.0342 89.1078 22.0342C88.8221 22.0342 88.587 21.9509 88.4025 21.7843C88.218 21.6117 88.1258 21.3885 88.1258 21.1147C88.1258 20.1744 88.6495 19.7042 89.697 19.7042H90.5719V21.2486C90.4648 21.451 90.2862 21.6325 90.0362 21.7932Z" fill="black"/>
<path d="M27.1335 20.5701L26.3944 19.8965L26.1335 20.1828V20.5701H27.1335ZM28.419 19.1596L29.2871 18.6631L28.6052 17.4708L27.68 18.486L28.419 19.1596ZM27.1335 23.9982V24.9982H28.1335V23.9982H27.1335ZM24 23.9982H23V24.9982H24V23.9982ZM24 11V10H23V11H24ZM27.1335 11H28.1335V10H27.1335V11ZM27.1335 16.7314H26.1335V20.0642L27.9683 17.2819L27.1335 16.7314ZM28.2226 15.0798L27.3984 14.5135L27.3931 14.5213L27.3878 14.5293L28.2226 15.0798ZM31.0258 11V10H30.4996L30.2016 10.4337L31.0258 11ZM34.9003 11L35.6949 11.6071L36.9227 10H34.9003V11ZM30.508 16.7492L29.7134 16.1421L29.2994 16.6841L29.6528 17.2674L30.508 16.7492ZM34.9003 23.9982V24.9982H36.6755L35.7556 23.48L34.9003 23.9982ZM31.1865 23.9982L30.3185 24.4947L30.6065 24.9982H31.1865V23.9982ZM41.712 23.1323L42.6889 22.9186L42.2391 20.8621L40.9292 22.51L41.712 23.1323ZM41.9977 23.9982L41.1198 24.4771L41.4041 24.9982H41.9977V23.9982ZM37.0698 23.3555L36.4138 24.1102L36.4178 24.1137L37.0698 23.3555ZM41.5781 18.0973V19.0973H42.5781V18.0973H41.5781ZM39.3552 17.3116V18.3116H40.3552V17.3116H39.3552ZM36.3467 17.3116H35.3467V18.3116H36.3467V17.3116ZM37.534 15.0352L36.9437 14.228L36.9408 14.2301L37.534 15.0352ZM44.5956 17.5348H45.5956V17.5263L45.5954 17.5178L44.5956 17.5348ZM44.5956 21.811H43.5955L43.5957 21.8245L44.5956 21.811ZM45.0062 23.8465H46.0062V23.5868L45.8799 23.3599L45.0062 23.8465ZM45.0062 23.9982V24.9982H46.0062V23.9982H45.0062ZM41.0425 21.7932L40.5017 20.952L40.4925 20.958L41.0425 21.7932ZM41.5781 21.2486L42.4619 21.7165L42.5781 21.497V21.2486H41.5781ZM41.5781 19.7042H42.5781V18.7042H41.5781V19.7042ZM39.4088 21.7843L38.7256 22.5145L38.732 22.5205L38.7385 22.5264L39.4088 21.7843ZM54.2193 22.8377L53.4212 22.2351L53.4205 22.236L54.2193 22.8377ZM54.246 15.4815L53.446 16.0815L53.448 16.0841L54.246 15.4815ZM49.1932 15.2316L48.1981 15.3311L48.4404 17.7536L49.9709 15.8602L49.1932 15.2316ZM49.1039 14.3388L50.0989 14.2393L50.0089 13.3388H49.1039V14.3388ZM46.2918 14.3388V13.3388H45.2918V14.3388H46.2918ZM46.2918 27.712H45.2918V28.712H46.2918V27.712ZM49.3003 27.712V28.712H50.3003V27.712H49.3003ZM49.3003 23.2037L50.0507 22.5428L48.3003 20.5553V23.2037H49.3003ZM52.2285 19.3739L53.2283 19.3919L53.2285 19.3829V19.3739H52.2285ZM49.3003 21.0522H48.3003V21.2836L48.4019 21.4914L49.3003 21.0522ZM49.3003 17.2492L48.3936 16.8274L48.3003 17.028V17.2492H49.3003ZM63.3253 22.9537L64.3217 22.8686L64.1048 20.3311L62.5372 22.3382L63.3253 22.9537ZM58.3349 23.2573L57.5823 23.9158L57.5891 23.9234L58.3349 23.2573ZM57.5225 14.3388V13.3388H56.5225V14.3388H57.5225ZM60.531 14.3388H61.531V13.3388H60.531V14.3388ZM63.2093 21.1147L64.0704 21.6231L64.2093 21.3879V21.1147H63.2093ZM63.2093 14.3388V13.3388H62.2093V14.3388H63.2093ZM66.2356 14.3388H67.2356V13.3388H66.2356V14.3388ZM66.2356 23.9982V24.9982H67.2356V23.9982H66.2356ZM63.4146 23.9982L62.4182 24.0834L62.4964 24.9982H63.4146V23.9982ZM72.6365 21.936L72.0119 21.1552L72.0063 21.1596L72.0008 21.1641L72.6365 21.936ZM70.619 21.8825L70.0297 22.6905L70.0409 22.6985L70.619 21.8825ZM70.1726 20.9004L71.1722 20.8738L71.1463 19.9004H70.1726V20.9004ZM67.3605 20.9004V19.9004H66.3605V20.9004H67.3605ZM69.4227 23.7304L69.0058 24.6394L69.0058 24.6394L69.4227 23.7304ZM71.0845 24.1536H72.0845V23.2361L71.1705 23.1573L71.0845 24.1536ZM71.0845 26.3284H70.0845V27.3284H71.0845V26.3284ZM72.5185 26.3284V27.3284H73.5185V26.3284H72.5185ZM72.5185 24.1258L72.3979 23.1331L71.5185 23.24V24.1258H72.5185ZM74.672 23.3465L74.096 22.5291L74.0931 22.5311L74.672 23.3465ZM73.6721 18.5079L73.9976 17.5624L73.9961 17.5619L73.6721 18.5079ZM72.1545 18.124L71.9702 19.1069L71.972 19.1073L72.1545 18.124ZM70.8332 16.41L71.4605 17.1887L71.467 17.1835L71.4734 17.1782L70.8332 16.41ZM72.8508 17.3027H71.8508V18.3027H72.8508V17.3027ZM75.8683 17.3027V18.3027H76.8683V17.3027H75.8683ZM74.7077 15.0262L75.3057 14.2248V14.2248L74.7077 15.0262ZM72.5185 14.2111H71.5185V15.0971L72.398 15.2038L72.5185 14.2111ZM72.5185 11.9887H73.5185V10.9887H72.5185V11.9887ZM71.0845 11.9887V10.9887H70.0845V11.9887H71.0845ZM71.0845 14.1825L71.1674 15.1791L72.0845 15.1028V14.1825H71.0845ZM68.7621 15.0262L69.3773 15.8146L69.3813 15.8115L68.7621 15.0262ZM69.1638 19.5346L68.6745 20.4067L68.6827 20.4112L69.1638 19.5346ZM81.7694 14.3388H80.7694V15.3388H81.7694V14.3388ZM81.7694 11.9374H82.7694V10.9374H81.7694V11.9374ZM83.3584 14.3388H84.3584V13.3388H83.3584V14.3388ZM83.3584 16.4278V17.4278H84.3584V16.4278H83.3584ZM81.7694 16.4278V15.4278H80.7694V16.4278H81.7694ZM83.4924 21.7664H84.4924V20.5745L83.3186 20.7816L83.4924 21.7664ZM83.4924 23.9179L83.796 24.8707L84.4924 24.6488V23.9179H83.4924ZM78.7609 16.4278H79.7609V15.4278H78.7609V16.4278ZM77.5289 16.4278H76.5289V17.4278H77.5289V16.4278ZM77.5289 14.3388V13.3388H76.5289V14.3388H77.5289ZM78.7609 14.3388V15.3388H79.7609V14.3388H78.7609ZM78.7609 11.9374V10.9374H77.7609V11.9374H78.7609ZM90.9915 23.9982L90.1136 24.4771L90.3979 24.9982H90.9915V23.9982ZM90.7058 23.1323L91.6827 22.9186L91.2328 20.8621L89.923 22.51L90.7058 23.1323ZM94 23.9982V24.9982H95V23.9982H94ZM94 23.8465H95V23.5868L94.8736 23.3599L94 23.8465ZM93.5893 21.811H92.5892L92.5894 21.8245L93.5893 21.811ZM93.5893 17.5348H94.5893V17.5263L94.5892 17.5178L93.5893 17.5348ZM86.5278 15.0352L85.9375 14.228L85.9346 14.2301L86.5278 15.0352ZM85.3405 17.3116H84.3405V18.3116H85.3405V17.3116ZM88.349 17.3116V18.3116H89.349V17.3116H88.349ZM90.5719 18.0973V19.0973H91.5719V18.0973H90.5719ZM86.0636 23.3555L85.4076 24.1102L85.4116 24.1137L86.0636 23.3555ZM90.0362 21.7932L89.4955 20.9519L89.4863 20.958L90.0362 21.7932ZM88.4025 21.7843L87.7194 22.5145L87.7258 22.5205L87.7323 22.5264L88.4025 21.7843ZM90.5719 19.7042H91.5719V18.7042H90.5719V19.7042ZM90.5719 21.2486L91.4557 21.7165L91.5719 21.497V21.2486H90.5719ZM27.8726 21.2437L29.1581 19.8332L27.68 18.486L26.3944 19.8965L27.8726 21.2437ZM28.1335 23.9982V20.5701H26.1335V23.9982H28.1335ZM24 24.9982H27.1335V22.9982H24V24.9982ZM23 11V23.9982H25V11H23ZM27.1335 10H24V12H27.1335V10ZM28.1335 16.7314V11H26.1335V16.7314H28.1335ZM27.3878 14.5293L26.2987 16.1808L27.9683 17.2819L29.0575 15.6303L27.3878 14.5293ZM30.2016 10.4337L27.3984 14.5135L29.0468 15.6461L31.85 11.5663L30.2016 10.4337ZM34.9003 10H31.0258V12H34.9003V10ZM31.3027 17.3563L35.6949 11.6071L34.1057 10.3929L29.7134 16.1421L31.3027 17.3563ZM35.7556 23.48L31.3633 16.231L29.6528 17.2674L34.0451 24.5164L35.7556 23.48ZM31.1865 24.9982H34.9003V22.9982H31.1865V24.9982ZM27.551 19.6561L30.3185 24.4947L32.0546 23.5018L29.2871 18.6631L27.551 19.6561ZM40.7351 23.346C40.8261 23.7617 40.9457 24.1579 41.1198 24.4771L42.8756 23.5194C42.8354 23.4458 42.7646 23.2647 42.6889 22.9186L40.7351 23.346ZM39.3909 25.1768C40.649 25.1768 41.7277 24.7197 42.4948 23.7545L40.9292 22.51C40.5894 22.9376 40.1206 23.1768 39.3909 23.1768V25.1768ZM36.4178 24.1137C37.2519 24.8309 38.2628 25.1768 39.3909 25.1768V23.1768C38.6978 23.1768 38.1613 22.9752 37.7218 22.5972L36.4178 24.1137ZM35.1146 21.2754C35.1146 22.4023 35.5616 23.3696 36.4138 24.1102L37.7258 22.6007C37.3043 22.2344 37.1146 21.8149 37.1146 21.2754H35.1146ZM36.7059 18.0785C35.6286 18.8243 35.1146 19.9431 35.1146 21.2754H37.1146C37.1146 20.5127 37.3742 20.0484 37.8443 19.7229L36.7059 18.0785ZM40.6497 17.0973C39.0773 17.0973 37.7173 17.3783 36.7059 18.0785L37.8443 19.7229C38.3803 19.3518 39.2701 19.0973 40.6497 19.0973V17.0973ZM41.5781 17.0973H40.6497V19.0973H41.5781V17.0973ZM40.5781 17.5884V18.0973H42.5781V17.5884H40.5781ZM40.4265 17.2582C40.5245 17.2582 40.5659 17.2726 40.571 17.2746C40.5729 17.2753 40.5677 17.2735 40.5587 17.2672C40.5494 17.2608 40.5408 17.253 40.5342 17.2453C40.5054 17.212 40.5781 17.2666 40.5781 17.5884H42.5781C42.5781 17.0234 42.4589 16.4129 42.0462 15.9362C41.6097 15.432 41.0051 15.2582 40.4265 15.2582V17.2582ZM40.3552 17.3116C40.3552 17.2179 40.3675 17.177 40.3692 17.1718C40.3698 17.1702 40.3674 17.1776 40.3595 17.1906C40.3514 17.2039 40.3396 17.2194 40.3242 17.2346C40.3088 17.2498 40.2937 17.2606 40.2818 17.2676C40.2703 17.2744 40.265 17.2757 40.2693 17.2743C40.2799 17.2708 40.3268 17.2582 40.4265 17.2582V15.2582C39.9194 15.2582 39.3546 15.383 38.9219 15.8086C38.486 16.2372 38.3552 16.8021 38.3552 17.3116H40.3552ZM36.3467 18.3116H39.3552V16.3116H36.3467V18.3116ZM36.9408 14.2301C35.9091 14.9903 35.3467 16.0405 35.3467 17.3116H37.3467C37.3467 16.714 37.5758 16.2465 38.1272 15.8402L36.9408 14.2301ZM40.5782 13.1603C39.1871 13.1603 37.9509 13.4914 36.9437 14.228L38.1243 15.8423C38.7121 15.4124 39.5054 15.1603 40.5782 15.1603V13.1603ZM44.1414 14.2969C43.1962 13.5013 41.9697 13.1603 40.5782 13.1603V15.1603C41.6508 15.1603 42.3704 15.4204 42.8536 15.827L44.1414 14.2969ZM45.5954 17.5178C45.5733 16.2207 45.1053 15.1082 44.1414 14.2969L42.8536 15.827C43.318 16.218 43.5821 16.754 43.5957 17.5519L45.5954 17.5178ZM45.5956 21.811V17.5348H43.5956V21.811H45.5956ZM45.8799 23.3599C45.7349 23.0996 45.6064 22.6138 45.5955 21.7976L43.5957 21.8245C43.6085 22.7818 43.7538 23.653 44.1326 24.3331L45.8799 23.3599ZM46.0062 23.9982V23.8465H44.0062V23.9982H46.0062ZM41.9977 24.9982H45.0062V22.9982H41.9977V24.9982ZM40.4925 20.958C40.4523 20.9845 40.3484 21.0342 40.114 21.0342V23.0342C40.6295 23.0342 41.1447 22.9233 41.5925 22.6284L40.4925 20.958ZM40.6943 20.7807C40.6881 20.7926 40.6491 20.8573 40.5017 20.952L41.5832 22.6344C41.9358 22.4077 42.2539 22.1094 42.4619 21.7165L40.6943 20.7807ZM40.5781 19.7042V21.2486H42.5781V19.7042H40.5781ZM40.7032 20.7042H41.5781V18.7042H40.7032V20.7042ZM40.132 21.1147C40.132 20.9699 40.1525 20.8867 40.1677 20.8457C40.1807 20.8105 40.1907 20.8028 40.1929 20.8009C40.1994 20.7951 40.3086 20.7042 40.7032 20.7042V18.7042C40.0504 18.7042 39.374 18.8484 38.8568 19.3127C38.3191 19.7954 38.132 20.4608 38.132 21.1147H40.132ZM40.0919 21.054C40.0943 21.0562 40.1001 21.0622 40.1072 21.0723C40.1144 21.0825 40.1206 21.0939 40.1254 21.1054C40.1356 21.1301 40.132 21.138 40.132 21.1147H38.132C38.132 21.6394 38.3209 22.1359 38.7256 22.5145L40.0919 21.054ZM40.114 21.0342C40.0687 21.0342 40.0534 21.0277 40.0575 21.0292C40.0593 21.0298 40.0633 21.0315 40.0684 21.0345C40.0735 21.0376 40.0772 21.0405 40.0791 21.0422L38.7385 22.5264C39.1341 22.8837 39.6201 23.0342 40.114 23.0342V21.0342ZM54.237 19.24C54.237 20.5941 53.9311 21.5597 53.4212 22.2351L55.0174 23.4402C55.8644 22.3183 56.237 20.8854 56.237 19.24H54.237ZM54.237 19.0971V19.24H56.237V19.0971H54.237ZM53.448 16.0841C53.9342 16.728 54.237 17.694 54.237 19.0971H56.237C56.237 17.4292 55.8791 15.9848 55.0441 14.8789L53.448 16.0841ZM51.4696 15.1603C52.3748 15.1603 52.9914 15.4753 53.446 16.0815L55.046 14.8815C54.1795 13.7261 52.9451 13.1603 51.4696 13.1603V15.1603ZM49.9709 15.8602C50.3531 15.3874 50.8229 15.1603 51.4696 15.1603V13.1603C50.2357 13.1603 49.1878 13.6474 48.4155 14.6029L49.9709 15.8602ZM48.1088 14.4383L48.1981 15.3311L50.1882 15.1321L50.0989 14.2393L48.1088 14.4383ZM46.2918 15.3388H49.1039V13.3388H46.2918V15.3388ZM47.2918 27.712V14.3388H45.2918V27.712H47.2918ZM49.3003 26.712H46.2918V28.712H49.3003V26.712ZM48.3003 23.2037V27.712H50.3003V23.2037H48.3003ZM51.4875 23.1768C50.8795 23.1768 50.4267 22.9697 50.0507 22.5428L48.5498 23.8646C49.3166 24.7352 50.322 25.1768 51.4875 25.1768V23.1768ZM53.4205 22.236C52.943 22.8699 52.3323 23.1768 51.4875 23.1768V25.1768C52.9399 25.1768 54.1505 24.591 55.018 23.4394L53.4205 22.236ZM53.2285 19.0525C53.2285 18.131 53.0999 17.2761 52.7173 16.6203C52.2864 15.8816 51.5808 15.4814 50.7287 15.4814V17.4814C50.8323 17.4814 50.8747 17.5023 50.8887 17.5103C50.9023 17.5181 50.9398 17.5425 50.9897 17.628C51.1071 17.8292 51.2285 18.2599 51.2285 19.0525H53.2285ZM53.2285 19.3739V19.0525H51.2285V19.3739H53.2285ZM50.7465 22.8557C51.58 22.8557 52.268 22.4617 52.6942 21.7479C53.0737 21.1124 53.2122 20.2841 53.2283 19.3919L51.2286 19.3559C51.2149 20.1182 51.0916 20.5308 50.9771 20.7225C50.9283 20.8042 50.8932 20.826 50.8831 20.8317C50.8734 20.8372 50.8383 20.8557 50.7465 20.8557V22.8557ZM48.4019 21.4914C48.615 21.9273 48.9381 22.2875 49.3726 22.529C49.7975 22.765 50.2709 22.8557 50.7465 22.8557V20.8557C50.5198 20.8557 50.4011 20.8124 50.3439 20.7807C50.2964 20.7542 50.2474 20.7127 50.1987 20.613L48.4019 21.4914ZM48.3003 17.2492V21.0522H50.3003V17.2492H48.3003ZM50.7287 15.4814C50.2575 15.4814 49.7853 15.5652 49.3625 15.7925C48.9254 16.0275 48.5993 16.385 48.3936 16.8274L50.207 17.6709C50.2393 17.6015 50.2703 17.5751 50.3094 17.5542C50.3626 17.5255 50.4856 17.4814 50.7287 17.4814V15.4814ZM60.7453 25.1768C62.1196 25.1768 63.277 24.6402 64.1134 23.5693L62.5372 22.3382C62.1 22.898 61.5374 23.1768 60.7453 23.1768V25.1768ZM57.5891 23.9234C58.3778 24.8064 59.4887 25.1768 60.7453 25.1768V23.1768C59.8831 23.1768 59.3871 22.9341 59.0807 22.5911L57.5891 23.9234ZM56.5225 20.5969C56.5225 21.8965 56.8271 23.0527 57.5823 23.9158L59.0875 22.5988C58.7595 22.224 58.5225 21.6066 58.5225 20.5969H56.5225ZM56.5225 14.3388V20.5969H58.5225V14.3388H56.5225ZM60.531 13.3388H57.5225V15.3388H60.531V13.3388ZM61.531 20.6148V14.3388H59.531V20.6148H61.531ZM61.7362 20.8557C61.6183 20.8557 61.5566 20.8402 61.5336 20.8323C61.5158 20.8262 61.5295 20.828 61.5497 20.8487C61.5961 20.8965 61.531 20.8815 61.531 20.6148H59.531C59.531 21.1753 59.6669 21.7808 60.115 22.2422C60.5683 22.7089 61.1728 22.8557 61.7362 22.8557V20.8557ZM62.3481 20.6063C62.2756 20.7292 62.1574 20.8557 61.7362 20.8557V22.8557C62.6959 22.8557 63.5597 22.4881 64.0704 21.6231L62.3481 20.6063ZM62.2093 14.3388V21.1147H64.2093V14.3388H62.2093ZM66.2356 13.3388H63.2093V15.3388H66.2356V13.3388ZM67.2356 23.9982V14.3388H65.2356V23.9982H67.2356ZM63.4146 24.9982H66.2356V22.9982H63.4146V24.9982ZM62.3289 23.0389L62.4182 24.0834L64.4109 23.9131L64.3217 22.8686L62.3289 23.0389ZM73.949 21.2843C73.949 20.5914 73.5486 20.092 73.0475 19.8025L72.047 21.5342C72.0796 21.5531 72.0493 21.5434 72.011 21.4847C71.9917 21.4551 71.9749 21.4197 71.9636 21.3807C71.9523 21.342 71.949 21.3085 71.949 21.2843H73.949ZM73.2612 22.7169C73.7079 22.3596 73.949 21.8545 73.949 21.2843H71.949C71.949 21.2855 71.9496 21.2565 71.9692 21.2158C71.9781 21.1971 71.9884 21.1817 71.9977 21.1703C72.0068 21.1591 72.0127 21.1544 72.0119 21.1552L73.2612 22.7169ZM71.717 23.186C72.2355 23.186 72.814 23.0853 73.2723 22.708L72.0008 21.1641C72.0297 21.1404 72.0375 21.1463 71.9926 21.1585C71.9455 21.1713 71.8582 21.186 71.717 21.186V23.186ZM70.0409 22.6985C70.5368 23.0497 71.1206 23.186 71.717 23.186V21.186C71.4207 21.186 71.2724 21.1199 71.197 21.0664L70.0409 22.6985ZM69.173 20.9271C69.1907 21.5938 69.429 22.2524 70.0298 22.6905L71.2081 21.0744C71.2049 21.0721 71.2054 21.072 71.207 21.074C71.2085 21.0758 71.207 21.0746 71.2035 21.0669C71.1961 21.0506 71.1755 20.9946 71.1722 20.8738L69.173 20.9271ZM67.3605 21.9004H70.1726V19.9004H67.3605V21.9004ZM68.7207 21.9378C68.4638 21.5756 68.3605 21.2359 68.3605 20.9004H66.3605C66.3605 21.6958 66.6202 22.4334 67.0894 23.0948L68.7207 21.9378ZM69.8396 22.8215C69.3282 22.5869 68.9688 22.2876 68.7207 21.9378L67.0894 23.0948C67.5673 23.7687 68.2197 24.2788 69.0058 24.6394L69.8396 22.8215ZM71.1705 23.1573C70.6658 23.1137 70.2254 22.9984 69.8396 22.8215L69.0058 24.6394C69.6215 24.9218 70.2889 25.0886 70.9985 25.1499L71.1705 23.1573ZM70.0845 24.1536V26.3284H72.0845V24.1536H70.0845ZM71.0845 27.3284H72.5185V25.3284H71.0845V27.3284ZM73.5185 26.3284V24.1258H71.5185V26.3284H73.5185ZM74.0931 22.5311C73.6658 22.8345 73.1131 23.0462 72.3979 23.1331L72.639 25.1185C73.6222 24.9991 74.5052 24.6913 75.2509 24.162L74.0931 22.5311ZM74.8504 21.195C74.8504 21.7175 74.6441 22.1429 74.096 22.5291L75.2479 24.164C76.2711 23.4432 76.8504 22.4343 76.8504 21.195H74.8504ZM73.3466 19.4535C73.9529 19.6622 74.3169 19.9227 74.529 20.1844C74.7303 20.4327 74.8504 20.7494 74.8504 21.195H76.8504C76.8504 20.3492 76.6075 19.5723 76.0826 18.9249C75.5686 18.2908 74.8435 17.8536 73.9976 17.5624L73.3466 19.4535ZM71.972 19.1073C72.5138 19.2078 72.9705 19.3247 73.3481 19.454L73.9961 17.5619C73.5048 17.3936 72.9497 17.2545 72.3369 17.1408L71.972 19.1073ZM70.3678 18.557C70.7941 18.8283 71.3635 18.9932 71.9702 19.1069L72.3388 17.1412C71.8027 17.0407 71.5389 16.9317 71.4415 16.8697L70.3678 18.557ZM69.5118 17.0617C69.5118 17.7306 69.8712 18.241 70.3678 18.557L71.4415 16.8697C71.4123 16.8511 71.4363 16.8592 71.4665 16.9092C71.4813 16.9339 71.4937 16.9623 71.5018 16.9924C71.5099 17.0222 71.5118 17.0464 71.5118 17.0617H69.5118ZM70.2059 15.6312C69.7697 15.9826 69.5118 16.48 69.5118 17.0617H71.5118C71.5118 17.0714 71.5087 17.1047 71.4891 17.1446C71.4701 17.1831 71.4513 17.1962 71.4605 17.1887L70.2059 15.6312ZM71.6278 15.1422C71.1109 15.1422 70.6105 15.2939 70.193 15.6418L71.4734 17.1782C71.4844 17.169 71.5137 17.1422 71.6278 17.1422V15.1422ZM73.8508 17.3027C73.8508 16.7479 73.7021 16.1516 73.2334 15.7069C72.7745 15.2715 72.1769 15.1422 71.6278 15.1422V17.1422C71.894 17.1422 71.9079 17.2063 71.8567 17.1577C71.833 17.1352 71.8275 17.1166 71.8309 17.1264C71.8362 17.1415 71.8508 17.1943 71.8508 17.3027H73.8508ZM75.8683 16.3027H72.8508V18.3027H75.8683V16.3027ZM74.1097 15.8277C74.6383 16.2222 74.8683 16.6877 74.8683 17.3027H76.8683C76.8683 16.037 76.3245 14.9849 75.3057 14.2248L74.1097 15.8277ZM72.398 15.2038C73.1332 15.2931 73.689 15.5139 74.1097 15.8277L75.3057 14.2248C74.5539 13.6638 73.6503 13.3412 72.6389 13.2184L72.398 15.2038ZM73.5185 14.2111V11.9887H71.5185V14.2111H73.5185ZM72.5185 10.9887H71.0845V12.9887H72.5185V10.9887ZM70.0845 11.9887V14.1825H72.0845V11.9887H70.0845ZM69.3813 15.8115C69.8137 15.4705 70.3904 15.2438 71.1674 15.1791L71.0015 13.186C69.9114 13.2767 68.9398 13.6125 68.1428 14.241L69.3813 15.8115ZM68.664 17.2134C68.664 16.6511 68.8748 16.2068 69.3773 15.8146L68.1468 14.2379C67.1853 14.9884 66.664 16.0022 66.664 17.2134H68.664ZM68.8819 17.9919C68.7427 17.7815 68.664 17.5331 68.664 17.2134H66.664C66.664 17.8936 66.8412 18.532 67.2139 19.0954L68.8819 17.9919ZM69.6531 18.6624C69.2754 18.4506 69.0337 18.2213 68.8819 17.9919L67.2139 19.0954C67.5739 19.6396 68.0761 20.071 68.6746 20.4067L69.6531 18.6624ZM71.2376 19.2101C70.5477 19.0568 70.0253 18.8666 69.6449 18.6579L68.6827 20.4112C69.2784 20.7381 69.9939 20.9825 70.8038 21.1624L71.2376 19.2101ZM73.0475 19.8025C72.6313 19.562 71.9827 19.3756 71.2376 19.2101L70.8038 21.1624C71.5585 21.3302 71.9276 21.4652 72.047 21.5342L73.0475 19.8025ZM82.7694 14.3388V11.9374H80.7694V14.3388H82.7694ZM83.3584 13.3388H81.7694V15.3388H83.3584V13.3388ZM84.3584 16.4278V14.3388H82.3584V16.4278H84.3584ZM81.7694 17.4278H83.3584V15.4278H81.7694V17.4278ZM82.7694 20.8469V16.4278H80.7694V20.8469H82.7694ZM82.7029 20.93C82.7418 20.9724 82.7641 21.0103 82.7756 21.0334C82.7868 21.0559 82.7887 21.0663 82.7866 21.0583C82.7845 21.0504 82.78 21.0296 82.7761 20.9928C82.7722 20.9563 82.7694 20.9082 82.7694 20.8469H80.7694C80.7694 21.2667 80.8323 21.8491 81.2286 22.2814L82.7029 20.93ZM82.7425 20.82C82.6758 20.82 82.6244 20.8168 82.5862 20.8126C82.5477 20.8084 82.5284 20.8036 82.5241 20.8024C82.5195 20.8011 82.5378 20.8056 82.5696 20.8231C82.6026 20.8412 82.652 20.8744 82.7029 20.93L81.2286 22.2814C81.6679 22.7606 82.321 22.82 82.7425 22.82V20.82ZM83.3186 20.7816C83.1928 20.8038 83.0052 20.82 82.7425 20.82V22.82C83.0749 22.82 83.3872 22.8004 83.6661 22.7512L83.3186 20.7816ZM84.4924 23.9179V21.7664H82.4924V23.9179H84.4924ZM81.7962 25.1768C82.4846 25.1768 83.1527 25.0757 83.796 24.8707L83.1887 22.9651C82.7489 23.1053 82.2861 23.1768 81.7962 23.1768V25.1768ZM78.799 24.1561C79.5548 24.9028 80.6253 25.1768 81.7962 25.1768V23.1768C80.8959 23.1768 80.4368 22.9627 80.2046 22.7334L78.799 24.1561ZM77.7609 21.2218C77.7609 22.3668 78.0456 23.4118 78.799 24.1561L80.2046 22.7334C79.9701 22.5016 79.7609 22.0647 79.7609 21.2218H77.7609ZM77.7609 16.4278V21.2218H79.7609V16.4278H77.7609ZM77.5289 17.4278H78.7609V15.4278H77.5289V17.4278ZM76.5289 14.3388V16.4278H78.5289V14.3388H76.5289ZM78.7609 13.3388H77.5289V15.3388H78.7609V13.3388ZM77.7609 11.9374V14.3388H79.7609V11.9374H77.7609ZM81.7694 10.9374H78.7609V12.9374H81.7694V10.9374ZM91.8694 23.5194C91.8292 23.4458 91.7584 23.2646 91.6827 22.9186L89.7289 23.346C89.8198 23.7617 89.9395 24.1579 90.1136 24.4771L91.8694 23.5194ZM94 22.9982H90.9915V24.9982H94V22.9982ZM93 23.8465V23.9982H95V23.8465H93ZM92.5894 21.8245C92.6023 22.7818 92.7476 23.653 93.1264 24.3331L94.8736 23.3599C94.7286 23.0996 94.6002 22.6138 94.5892 21.7976L92.5894 21.8245ZM92.5893 17.5348V21.811H94.5893V17.5348H92.5893ZM91.8473 15.827C92.3118 16.218 92.5759 16.754 92.5895 17.5519L94.5892 17.5178C94.5671 16.2207 94.0991 15.1082 93.1352 14.2969L91.8473 15.827ZM89.572 15.1603C90.6446 15.1603 91.3642 15.4204 91.8473 15.827L93.1352 14.2969C92.19 13.5013 90.9634 13.1603 89.572 13.1603V15.1603ZM87.1181 15.8423C87.7059 15.4124 88.4992 15.1603 89.572 15.1603V13.1603C88.1809 13.1603 86.9447 13.4914 85.9375 14.228L87.1181 15.8423ZM86.3405 17.3116C86.3405 16.714 86.5696 16.2465 87.121 15.8402L85.9346 14.2301C84.9029 14.9903 84.3405 16.0405 84.3405 17.3116H86.3405ZM88.349 16.3116H85.3405V18.3116H88.349V16.3116ZM89.4203 15.2582C88.9132 15.2582 88.3484 15.383 87.9157 15.8086C87.4798 16.2372 87.349 16.8021 87.349 17.3116H89.349C89.349 17.2179 89.3612 17.177 89.363 17.1718C89.3635 17.1702 89.3612 17.1776 89.3533 17.1906C89.3451 17.2039 89.3334 17.2194 89.3179 17.2346C89.3025 17.2498 89.2875 17.2606 89.2756 17.2676C89.2641 17.2744 89.2587 17.2757 89.263 17.2743C89.2737 17.2708 89.3206 17.2582 89.4203 17.2582V15.2582ZM91.5719 17.5884C91.5719 17.0234 91.4527 16.4129 91.04 15.9362C90.6035 15.432 89.9988 15.2582 89.4203 15.2582V17.2582C89.5183 17.2582 89.5597 17.2726 89.5648 17.2746C89.5667 17.2753 89.5615 17.2735 89.5524 17.2672C89.5432 17.2608 89.5346 17.253 89.528 17.2453C89.4992 17.212 89.5719 17.2666 89.5719 17.5884H91.5719ZM91.5719 18.0973V17.5884H89.5719V18.0973H91.5719ZM89.6434 19.0973H90.5719V17.0973H89.6434V19.0973ZM86.8381 19.7229C87.3741 19.3518 88.2639 19.0973 89.6434 19.0973V17.0973C88.0711 17.0973 86.7111 17.3783 85.6997 18.0785L86.8381 19.7229ZM86.1083 21.2754C86.1083 20.5127 86.368 20.0484 86.8381 19.7229L85.6997 18.0785C84.6224 18.8243 84.1083 19.9431 84.1083 21.2754H86.1083ZM86.7196 22.6007C86.2981 22.2344 86.1083 21.8149 86.1083 21.2754H84.1083C84.1083 22.4023 84.5554 23.3696 85.4076 24.1102L86.7196 22.6007ZM88.3847 23.1768C87.6916 23.1768 87.1551 22.9752 86.7155 22.5972L85.4116 24.1137C86.2457 24.8309 87.2566 25.1768 88.3847 25.1768V23.1768ZM89.923 22.51C89.5831 22.9376 89.1144 23.1768 88.3847 23.1768V25.1768C89.6428 25.1768 90.7215 24.7197 91.4886 23.7545L89.923 22.51ZM89.1078 23.0342C89.6233 23.0342 90.1384 22.9233 90.5862 22.6284L89.4863 20.958C89.446 20.9845 89.3422 21.0342 89.1078 21.0342V23.0342ZM87.7323 22.5264C88.1278 22.8837 88.6139 23.0342 89.1078 23.0342V21.0342C89.0625 21.0342 89.0472 21.0277 89.0513 21.0292C89.053 21.0298 89.0571 21.0315 89.0622 21.0345C89.0673 21.0376 89.071 21.0405 89.0728 21.0421L87.7323 22.5264ZM87.1258 21.1147C87.1258 21.6394 87.3146 22.1359 87.7194 22.5145L89.0857 21.054C89.088 21.0562 89.0939 21.0622 89.101 21.0723C89.1081 21.0825 89.1144 21.0939 89.1191 21.1054C89.1293 21.1301 89.1258 21.138 89.1258 21.1147H87.1258ZM89.697 18.7042C89.0442 18.7042 88.3678 18.8484 87.8506 19.3127C87.3128 19.7954 87.1258 20.4608 87.1258 21.1147H89.1258C89.1258 20.9699 89.1462 20.8867 89.1615 20.8457C89.1745 20.8105 89.1845 20.8028 89.1866 20.8009C89.1932 20.7951 89.3024 20.7042 89.697 20.7042V18.7042ZM90.5719 18.7042H89.697V20.7042H90.5719V18.7042ZM91.5719 21.2486V19.7042H89.5719V21.2486H91.5719ZM90.577 22.6344C90.9296 22.4077 91.2477 22.1094 91.4557 21.7165L89.6881 20.7807C89.6818 20.7926 89.6429 20.8573 89.4955 20.952L90.577 22.6344Z" fill="black" mask="url(#path-3-inside-1_14_1370)"/>
</g>
</g>
<defs>
<filter id="filter0_d_14_1370" x="0" y="0" width="98" height="39" filterUnits="userSpaceOnUse" color-interpolation-filters="sRGB">
<feFlood flood-opacity="0" result="BackgroundImageFix"/>
<feColorMatrix in="SourceAlpha" type="matrix" values="0 0 0 0 0 0 0 0 0 0 0 0 0 0 0 0 0 0 127 0" result="hardAlpha"/>
<feOffset dy="4"/>
<feGaussianBlur stdDeviation="2"/>
<feComposite in2="hardAlpha" operator="out"/>
<feColorMatrix type="matrix" values="0 0 0 0 0 0 0 0 0 0 0 0 0 0 0 0 0 0 0.25 0"/>
<feBlend mode="normal" in2="BackgroundImageFix" result="effect1_dropShadow_14_1370"/>
<feBlend mode="normal" in="SourceGraphic" in2="effect1_dropShadow_14_1370" result="shape"/>
</filter>


</defs>
</svg>