<svg width="90" height="101" viewBox="0 0 90 101" fill="none" xmlns="http://www.w3.org/2000/svg">
<path d="M79.6167 78.3041C76.6536 81.6917 73.0398 84.3984 68.7983 86.4008C63.9068 88.71 58.7729 90.547 53.5401 91.8607C53.3114 91.9181 53.0837 91.9617 52.8565 91.9924L52.4968 98.0155C52.4725 98.4338 52.1891 98.8012 51.7891 98.9328C51.607 98.9929 47.2684 100.409 42.2738 100.451C37.262 100.494 33.5331 99.1721 33.3772 99.116C33.037 98.9936 32.7989 98.689 32.7594 98.326L32.2878 94.0184C32.2764 93.9128 32.2819 93.8092 32.302 93.7104C29.2017 92.9894 23.9449 91.0633 16.9926 85.9449C10.8364 81.412 6.7943 76.5452 4.97796 71.4799C4.88064 71.2088 4.70692 70.7819 4.51966 70.3204C4.19908 69.5303 3.8667 68.7131 3.72288 68.224C3.58114 67.7422 3.40643 67.2 3.21315 66.5988C1.71115 61.9322 -1.08438 53.2471 1.49371 41.2463C3.679 31.0758 6.26299 27.3244 8.5423 24.0148C9.89854 22.0461 11.0687 20.3461 11.9907 17.4859C14.3376 10.2093 13.3982 7.52383 13.3885 7.49731C13.2912 7.23427 13.3087 6.92848 13.4429 6.67336C13.5754 6.41873 13.8076 6.22046 14.083 6.14574C14.9361 5.91476 19.2873 4.84258 21.182 6.4473C22.1007 7.22493 22.4352 8.09349 22.6786 8.72722C22.9288 9.37755 22.9474 9.37842 23.1701 9.3913C23.4085 9.40459 23.663 9.27137 24.0585 9.05282C25.0025 8.53151 26.4281 7.74327 28.62 9.56659C30.366 11.0185 30.5009 12.7894 30.5261 14.1566C32.5673 13.2835 37.9205 11.1487 43.1867 10.3478C46.5886 9.83041 49.8995 9.98719 52.0777 10.2085C53.7393 10.3779 54.7989 10.531 55.4809 10.6855C55.8256 9.26394 56.1873 8.40918 56.4683 7.74466C56.7984 6.96518 56.9798 6.53529 56.9703 5.60252C56.9385 2.4998 60.6509 0.723546 61.1812 0.580086C61.4805 0.498776 61.7945 0.550826 62.0423 0.722126C62.5028 1.04003 62.5445 1.51466 62.6199 2.3766C62.7452 3.80994 63.0065 6.79172 65.1097 9.95413C66.9945 12.7878 69.99 15.1609 72.632 17.2542C74.3005 18.5761 75.8758 19.8245 76.9394 21.0192C80.4163 24.9246 87.6519 33.052 88.8864 45.1201C89.4771 50.891 88.9996 57.0673 87.5755 62.6422C87.5658 62.7528 87.5371 62.86 87.493 62.9613C87.1332 64.3295 86.7163 65.6591 86.2441 66.9362C84.6251 71.3158 82.4091 75.1123 79.6167 78.3041ZM74.1054 80.8289C80.0802 76.0608 83.6792 69.4776 85.5437 62.6265C85.1819 61.722 83.8399 58.8462 80.4726 56.0274C76.5051 52.7049 74.6622 52.3294 74.6442 52.3264C74.1212 52.228 73.7766 51.7225 73.8821 51.1908C73.9873 50.6587 74.4837 50.2917 75.0112 50.3665C75.2376 50.3987 77.3503 50.7862 81.7678 54.485C83.9589 56.3203 85.3725 58.1744 86.2513 59.6127C87.2267 54.7089 87.3735 49.7844 86.9248 45.3953C86.6918 43.1172 86.23 40.9834 85.6126 38.9964C84.7169 38.7024 82.2835 37.6759 79.4117 34.5648C76.0669 30.9415 74.1815 29.0359 74.1632 29.0172C73.7857 28.6368 73.8078 28.0067 74.1916 27.6159C74.5846 27.222 75.209 27.2118 75.5858 27.5929C75.6049 27.6123 77.5097 29.5376 80.8807 33.1884C82.3542 34.7839 83.679 35.7589 84.6677 36.343C82.0138 29.7443 77.8216 25.0358 75.4489 22.3708C74.4933 21.298 72.9797 20.0982 71.3775 18.8282C68.6256 16.6482 65.5073 14.1776 63.4588 11.0971C61.2685 7.80367 60.8522 4.72644 60.6918 3.01951C59.8972 3.57048 58.9322 4.48414 58.9434 5.50933C58.9571 6.86245 58.6434 7.60407 58.2801 8.46282C57.9362 9.27434 57.5092 10.284 57.1285 12.3583C56.7772 14.2731 57.7338 15.1628 59.3242 16.4566C60.3768 17.3118 61.5691 18.2821 62.05 19.7944C62.891 22.4392 61.3283 23.3965 60.2968 24.0312C59.7377 24.3741 59.2512 24.6723 58.973 25.1834C59.2533 25.4995 60.3824 25.9931 61.2216 26.36C63.1502 27.2031 65.7908 28.3581 67.5684 30.5387C68.5611 31.757 68.9569 32.7441 68.8135 33.6454C68.647 34.6977 67.8363 35.264 67.1843 35.7177C66.3279 36.3149 66.2151 36.4785 66.3298 36.9654C66.7652 38.8266 67.6275 39.9944 68.8204 41.6106C69.3232 42.292 69.893 43.0647 70.4938 43.9796C71.4323 45.4087 71.7209 46.8284 71.3511 48.1999C70.7897 50.284 68.7549 52.2128 64.9489 54.2684C61.7411 56.0012 59.4731 58.1488 58.1361 59.6453C58.1291 59.6533 58.1222 59.6612 58.1152 59.6692C57.5391 60.3277 57.3154 61.1815 57.2062 62.2405C57.4188 70.1496 55.4836 76.9616 51.5371 81.8903C50.7744 82.8424 49.8963 83.7798 48.9535 84.6821C48.2785 85.9745 48.5103 87.3125 49.0403 88.2383C49.6997 89.3912 51.1198 90.4436 53.1291 89.9385C58.2347 88.6568 63.2431 86.8652 68.0146 84.6121C69.4566 83.9312 70.8035 83.1651 72.0585 82.3258C72.1298 81.5341 72.3775 77.7982 71.232 73.1506C70.7442 73.0054 67.8208 72.0941 65.8554 70.5739C64.8754 69.8155 63.6498 68.8008 63.3751 68.2742L65.1302 67.3054C65.1302 67.3054 65.1221 67.2815 65.0876 67.2326C65.1007 67.2514 65.4347 67.7029 67.0943 68.9862C68.1259 69.7843 69.5277 70.4074 70.5516 70.7982C68.7195 65.1284 67.645 63.5903 67.6337 63.5752C67.3237 63.1428 67.4257 62.5223 67.8636 62.1897C68.3023 61.857 68.9103 61.9274 69.2298 62.3527C69.3594 62.525 70.5537 64.2187 72.5778 70.5855C73.9504 74.9034 74.1415 78.694 74.1054 80.8289ZM34.6529 97.4206C35.8242 97.7651 38.7499 98.4993 42.3305 98.4686C45.9087 98.4385 49.2047 97.6317 50.5715 97.2489L50.8553 92.4904C49.1786 92.857 46.4714 93.4311 44.66 93.724C39.8731 94.5007 35.4225 94.1829 35.235 94.1687C35.1582 94.163 35.0847 94.1483 35.0152 94.1269C34.8269 94.1167 34.5829 94.0979 34.2854 94.063L34.6529 97.4206ZM38.9139 92.2474C40.4852 92.212 42.4338 92.0894 44.4159 91.7679C45.6287 91.5714 47.2926 91.2371 48.7526 90.9298C48.1881 90.4935 47.7008 89.9374 47.3205 89.2722C46.8719 88.4884 46.626 87.6439 46.5746 86.7942C43.8687 89.0363 40.996 90.9526 38.9139 92.2474ZM35.2627 92.1488C36.5365 91.431 42.8019 87.8054 47.4152 83.462C47.6218 83.1205 47.868 82.792 48.1472 82.4831C49.4536 81.0414 50.5784 79.5539 51.4823 78.0617C54.8027 72.5779 55.0053 67.2889 55.1261 64.129C55.1468 63.5719 55.1669 63.0731 55.1978 62.6406C55.2077 62.5041 55.2189 62.3668 55.2316 62.2293C55.159 59.8562 54.885 57.3736 54.4044 54.806C52.5043 44.6554 49.3225 42.3995 47.7939 41.3157L47.5719 41.1576C47.1795 40.8738 46.337 40.51 45.4457 40.1255C43.1279 39.1252 39.9541 37.7553 38.7852 35.4036C37.7065 33.2331 39.103 31.3304 40.4532 29.4909C41.4217 28.1717 42.423 26.8069 42.6566 25.2647C43.1564 21.9595 38.7359 19.9785 36.0461 19.329C34.9829 19.0724 34.0228 19.0625 33.1761 19.0542C31.7249 19.0401 30.2242 19.0249 29.2255 17.5572C28.5873 16.6195 28.5733 15.5585 28.5592 14.5328C28.5414 13.2316 28.5261 12.1072 27.3305 11.1127C26.1452 10.1272 25.7241 10.3602 24.96 10.782C24.448 11.0652 23.8107 11.4173 22.988 11.3705C21.5236 11.288 21.1263 10.2555 20.8358 9.50166C20.628 8.9613 20.4314 8.45082 19.8794 7.98332C19.1864 7.39571 17.1173 7.52408 15.483 7.84004C15.6783 9.37011 15.6444 12.5184 13.866 18.0335C12.8505 21.1819 11.5394 23.0857 10.1511 25.1012C7.98066 28.2526 5.52056 31.8241 3.421 41.596C0.954881 53.0746 3.54439 61.1194 5.09232 65.9264C5.29096 66.5444 5.47029 67.1026 5.61651 67.5977C5.73354 67.9951 6.07552 68.8374 6.35039 69.5134C6.54958 70.0047 6.73369 70.4587 6.83746 70.7475C8.40067 75.1091 11.7988 79.3535 16.9469 83.3812C14.259 79.027 10.8136 71.923 9.74002 62.8888C7.93989 47.744 16.3535 28.7401 16.7125 27.9385C16.9414 27.4324 17.525 27.1925 18.0198 27.402C18.5149 27.611 18.733 28.1905 18.5066 28.6961C18.4252 28.8783 10.7786 46.1546 11.5147 60.3939C13.2939 59.3157 17.2748 56.6801 18.8519 53.8056C19.5011 52.6237 20.0436 51.5859 20.5216 50.6704C21.7051 48.4041 22.5601 46.7668 23.8918 45.1245C23.8997 45.114 23.909 45.1034 23.9173 45.0939C24.2716 44.6889 24.8742 44.6227 25.2809 44.9511C25.6982 45.2874 25.753 45.9099 25.4024 46.3417C24.2599 47.7515 23.467 49.2324 22.4207 51.2335L25.0779 50.9515C25.6218 50.8941 26.0922 51.2883 26.1299 51.8323C26.1666 52.3775 25.7571 52.8647 25.214 52.9227L21.3158 53.3363C21.0835 53.772 20.8363 54.2313 20.5704 54.715C18.4094 58.6452 12.7948 61.9306 11.6946 62.5473C11.6958 62.5591 11.6975 62.5712 11.6987 62.583C12.275 67.431 13.5858 71.7276 15.0816 75.3065C15.79 72.3596 17.309 67.8652 20.1556 66.6491C22.0457 65.8412 24.1801 65.8356 26.2448 65.8292C28.5015 65.8229 30.6331 65.8168 32.3007 64.8242C32.7766 64.541 33.3769 64.6909 33.6418 65.1594C33.9064 65.6277 33.736 66.2364 33.2586 66.5205C31.113 67.7973 28.6042 67.8044 26.1779 67.8115C25.2967 67.8138 24.4373 67.8164 23.6198 67.8779C24.2902 69.0255 25.6208 71.1254 27.0709 72.4242C29.1357 74.2734 33.0353 75.7767 33.0742 75.7919C33.5768 75.9842 33.8145 76.5553 33.6048 77.0676C33.3959 77.5804 32.8178 77.8405 32.3151 77.6482C32.1423 77.5827 28.0533 76.008 25.7286 73.9261C23.6875 72.0983 21.9607 69.0531 21.5171 68.2356C21.2954 68.3026 21.0802 68.3798 20.8708 68.4689C18.3078 69.5657 16.8386 75.948 16.5263 78.0981C16.5144 78.1794 16.4934 78.2573 16.4637 78.331C19.122 83.6781 21.8397 86.7901 21.8878 86.8442C21.8937 86.8514 21.8996 86.8579 21.9056 86.8651C29.4288 91.6021 34.2133 92.0989 35.2627 92.1488ZM56.9091 58.1084C58.3801 56.5043 60.7626 54.3137 64.0648 52.5297C67.2449 50.8123 69.0563 49.2023 69.4479 47.7469C69.6669 46.9358 69.466 46.0745 68.835 45.1124C68.263 44.2413 67.7332 43.523 67.2207 42.8292C65.9941 41.1667 64.9343 39.7312 64.4091 37.4864C63.965 35.5909 65.3022 34.6591 66.1008 34.1029C66.4459 33.8617 66.8374 33.5895 66.8659 33.4037C66.878 33.328 66.8939 32.8958 66.0239 31.8275C64.5328 29.998 62.2298 28.9912 60.3794 28.1824C58.6625 27.4315 57.4219 26.8893 57.0638 25.8349C56.9537 25.5098 56.8869 24.9939 57.1984 24.3814C57.7403 23.3164 58.6129 22.7801 59.3147 22.3492C60.2966 21.7454 60.5325 21.6026 60.169 20.4592C59.8596 19.4868 58.981 18.7717 58.0504 18.015C56.6182 16.8504 54.8586 15.42 55.1073 12.6663C53.6644 12.3766 48.636 11.5139 43.4114 12.3077C37.9136 13.1433 32.1355 15.5827 30.7516 16.1906C30.7845 16.2636 30.8224 16.3329 30.8665 16.3975C31.2774 17.0011 31.7896 17.0566 33.2678 17.0716C34.1716 17.0803 35.2964 17.0918 36.5727 17.3996C40.6926 18.3946 45.2687 21.1105 44.6066 25.4911C44.2974 27.533 43.0903 29.1773 42.0257 30.6285C40.7398 32.3804 40.038 33.422 40.5568 34.4659C41.4192 36.2016 44.2287 37.414 46.28 38.2996C47.3117 38.7447 48.2028 39.1296 48.7618 39.533L48.9697 39.6815C50.701 40.9085 54.3017 43.462 56.3439 54.3704C56.58 55.6358 56.7684 56.8828 56.9091 58.1084Z" fill="#DFE2EB"/>
</svg>
