<svg xmlns="http://www.w3.org/2000/svg" width="29" height="32"><path d="M25.225 24.809a10.394 10.394 0 0 1-3.428 2.565 26.377 26.377 0 0 1-4.834 1.73 2.075 2.075 0 0 1-.217.042l-.114 1.908a.33.33 0 0 1-.224.291c-.058.019-1.432.468-3.015.481-1.588.014-2.769-.405-2.819-.423a.3.3 0 0 1-.196-.25l-.149-1.365a.293.293 0 0 1 .005-.098c-.982-.228-2.648-.839-4.851-2.46-1.95-1.436-3.231-2.978-3.807-4.583-.031-.086-.086-.221-.145-.367a8.476 8.476 0 0 1-.252-.664c-.045-.153-.1-.324-.161-.515-.476-1.479-1.362-4.23-.545-8.032.692-3.222 1.511-4.411 2.233-5.46.43-.624.8-1.162 1.093-2.069.744-2.305.446-3.156.443-3.165a.33.33 0 0 1 .22-.428c.27-.073 1.649-.413 2.249.096.291.246.397.522.474.722.079.206.085.206.156.21.076.004.156-.038.281-.107.299-.165.751-.415 1.445.163.553.46.596 1.021.604 1.454.647-.277 2.343-.953 4.011-1.207 1.078-.164 2.127-.114 2.817-.044a9.92 9.92 0 0 1 1.078.151c.109-.45.224-.721.313-.932.105-.247.162-.383.159-.679-.01-.983 1.166-1.546 1.334-1.591a.328.328 0 0 1 .273.045c.146.101.159.251.183.524.04.454.122 1.399.789 2.401.597.898 1.546 1.65 2.383 2.313.529.419 1.028.814 1.365 1.193 1.102 1.237 3.394 3.812 3.785 7.636a16.245 16.245 0 0 1-.415 5.552.32.32 0 0 1-.026.101c-.114.433-.246.855-.396 1.259-.513 1.388-1.215 2.59-2.1 3.602zm-1.746.8c1.893-1.511 3.033-3.596 3.624-5.767-.115-.287-.54-1.198-1.607-2.091-1.257-1.053-1.841-1.172-1.847-1.173-.166-.031-.275-.191-.241-.36s.191-.285.358-.261c.072.01.741.133 2.141 1.305a6.685 6.685 0 0 1 1.421 1.625c.309-1.554.356-3.114.213-4.505a10.347 10.347 0 0 0-.416-2.027c-.284-.093-1.055-.418-1.965-1.404a78.514 78.514 0 0 0-1.663-1.758.317.317 0 0 1 .009-.444.311.311 0 0 1 .442-.007c.006.006.61.616 1.678 1.773a5.41 5.41 0 0 0 1.2.999c-.841-2.091-2.169-3.582-2.921-4.427-.303-.34-.782-.72-1.29-1.122-.872-.691-1.86-1.473-2.509-2.449-.694-1.043-.826-2.018-.877-2.559-.252.175-.558.464-.554.789.004.429-.095.664-.21.936a5.16 5.16 0 0 0-.365 1.234c-.111.607.192.889.696 1.298.334.271.711.578.864 1.058.266.838-.229 1.141-.555 1.342-.177.109-.331.203-.419.365.089.1.447.257.712.373.611.267 1.448.633 2.011 1.324.315.386.44.699.395.984-.053.333-.31.513-.516.657-.271.189-.307.241-.271.395.138.59.411.96.789 1.472.159.216.34.461.53.751.297.453.389.903.272 1.337-.178.66-.823 1.271-2.028 1.923a8.07 8.07 0 0 0-2.159 1.704l-.007.008c-.183.209-.253.479-.288.815.067 2.506-.546 4.664-1.796 6.226-.242.302-.52.599-.819.885-.214.409-.14.833.027 1.127.209.365.659.699 1.295.539a25.739 25.739 0 0 0 4.716-1.688 9.891 9.891 0 0 0 1.281-.724c.023-.251.101-1.434-.262-2.907-.155-.046-1.081-.335-1.703-.816-.311-.24-.699-.562-.786-.729l.556-.307s-.003-.008-.014-.023c.004.006.11.149.636.556.327.253.771.45 1.095.574-.58-1.796-.921-2.284-.924-2.288-.098-.137-.066-.334.073-.439s.332-.083.433.052c.041.055.419.591 1.061 2.608a10.34 10.34 0 0 1 .484 3.245zm-12.5 5.257c.371.109 1.298.342 2.433.332s2.178-.265 2.611-.386l.09-1.508c-.531.116-1.389.298-1.963.391-1.517.246-2.927.145-2.986.141a.32.32 0 0 1-.07-.013 3.514 3.514 0 0 1-.231-.02l.116 1.064zm1.35-1.639c.498-.011 1.115-.05 1.743-.152.384-.062.911-.168 1.374-.266a1.77 1.77 0 0 1-.454-.525 1.791 1.791 0 0 1-.236-.785 22.744 22.744 0 0 1-2.427 1.728zm-1.157-.031c.404-.227 2.389-1.376 3.85-2.752.065-.108.143-.212.232-.31.414-.457.77-.928 1.057-1.401 1.052-1.737 1.116-3.413 1.154-4.414.007-.177.013-.335.023-.472l.011-.13a15.399 15.399 0 0 0-.262-2.352c-.602-3.216-1.61-3.931-2.094-4.274l-.07-.05c-.124-.09-.391-.205-.674-.327-.734-.317-1.74-.751-2.11-1.496-.342-.688.101-1.291.528-1.873.307-.418.624-.85.698-1.339.158-1.047-1.242-1.675-2.094-1.881-.337-.081-.641-.084-.909-.087-.46-.004-.935-.009-1.252-.474-.202-.297-.207-.633-.211-.958-.006-.412-.011-.768-.389-1.084-.376-.312-.509-.238-.751-.105-.162.09-.364.201-.625.186-.464-.026-.59-.353-.682-.592-.066-.171-.128-.333-.303-.481-.22-.186-.875-.146-1.393-.045.062.485.051 1.482-.512 3.23-.322.998-.737 1.601-1.177 2.239-.688.998-1.467 2.13-2.132 5.226-.781 3.637.039 6.186.53 7.709.063.196.12.373.166.53.037.126.145.393.233.607.063.156.121.299.154.391.495 1.382 1.572 2.727 3.203 4.003-.852-1.38-1.943-3.63-2.283-6.493-.57-4.798 2.095-10.819 2.209-11.073.073-.16.257-.236.414-.17s.226.25.154.41c-.026.058-2.448 5.531-2.215 10.043.564-.342 1.825-1.177 2.325-2.087.206-.374.378-.703.529-.993.375-.718.646-1.237 1.068-1.757l.008-.01a.314.314 0 0 1 .432-.045c.132.107.15.304.039.441-.362.447-.613.916-.945 1.55l.842-.089c.172-.018.321.107.333.279s-.118.327-.29.345l-1.235.131c-.074.138-.152.284-.236.437-.685 1.245-2.464 2.286-2.812 2.482l.001.011a15.106 15.106 0 0 0 1.072 4.031c.224-.934.706-2.358 1.608-2.743.599-.256 1.275-.258 1.929-.26.715-.002 1.39-.004 1.919-.318.151-.09.341-.042.425.106s.03.341-.121.431c-.68.405-1.475.407-2.243.409-.279.001-.551.002-.811.021.212.364.634 1.029 1.093 1.44.654.586 1.89 1.062 1.902 1.067.159.061.235.242.168.404s-.249.245-.409.184c-.055-.021-1.35-.52-2.087-1.179-.647-.579-1.194-1.544-1.334-1.803-.07.021-.138.046-.205.074-.812.348-1.278 2.37-1.376 3.051a.311.311 0 0 1-.02.074c.842 1.694 1.703 2.68 1.719 2.697l.006.007c2.384 1.501 3.899 1.658 4.232 1.674zm6.859-10.785a8.774 8.774 0 0 1 2.267-1.768c1.008-.544 1.581-1.054 1.706-1.515.069-.257.006-.53-.194-.835a14.999 14.999 0 0 0-.511-.723c-.389-.527-.724-.982-.891-1.693-.141-.601.283-.896.536-1.072.109-.076.233-.163.242-.222.004-.024.009-.161-.267-.499-.472-.58-1.202-.899-1.788-1.155-.544-.238-.937-.41-1.05-.744a.578.578 0 0 1 .043-.46c.172-.337.448-.507.671-.644.311-.191.386-.237.271-.599-.098-.308-.376-.535-.671-.774-.454-.369-1.011-.822-.932-1.695-.457-.092-2.05-.365-3.706-.114-1.742.265-3.573 1.038-4.011 1.23.01.023.022.045.036.066.13.191.292.209.761.214.286.003.643.006 1.047.104 1.305.315 2.755 1.176 2.545 2.564-.098.647-.48 1.168-.818 1.628-.407.555-.63.885-.465 1.216.273.55 1.163.934 1.813 1.215.327.141.609.263.786.391l.066.047c.549.389 1.689 1.198 2.336 4.654.075.401.134.796.179 1.184z"/></svg>