<svg xmlns="http://www.w3.org/2000/svg" aria-hidden="true" style="position:absolute;width:0;height:0;overflow:hidden"><defs>
<symbol id="icon-delete" viewBox="0 0 32 32"><path d="m28.992 7.153-.706-2.118a1.97 1.97 0 0 0-1.871-1.349h-5.938V1.753C20.477.787 19.691 0 18.725 0h-5.438c-.966 0-1.752.786-1.752 1.753v1.933H5.597c-.85 0-1.603.542-1.872 1.349l-.707 2.118A1.588 1.588 0 0 0 4.522 9.24h.739l1.625 20.1A2.908 2.908 0 0 0 9.768 32h12.804a2.909 2.909 0 0 0 2.882-2.66l1.625-20.1h.409c.508 0 .989-.246 1.286-.658s.379-.947.218-1.429zM13.409 1.875H18.6v1.811h-5.191V1.875zm10.176 27.314a1.023 1.023 0 0 1-1.013.936H9.768c-.525 0-.97-.411-1.013-.936L7.141 9.24h18.056l-1.613 19.949zM4.924 7.365l.579-1.737a.098.098 0 0 1 .093-.067h20.818c.042 0 .079.027.093.067l.579 1.737H4.924z"/><path d="M20.595 29.122a.937.937 0 0 0 .985-.888l.88-16.9a.938.938 0 0 0-1.872-.098l-.88 16.9a.937.937 0 0 0 .887.985zM10.473 28.237c.027.5.441.886.935.886l.052-.001a.937.937 0 0 0 .885-.987l-.922-16.9a.937.937 0 1 0-1.872.102l.922 16.9zM16.016 29.124c.518 0 .938-.42.938-.938v-16.9a.938.938 0 0 0-1.876 0v16.9c0 .518.42.938.938.938z"/></symbol>
<symbol id="icon-calculator" viewBox="0 0 34 32"><path d="M28.068 0H5.089C3.505 0 2.217 1.262 2.217 2.813v26.375C2.217 30.739 3.506 32 5.089 32h22.979c1.584 0 2.872-1.262 2.872-2.812V2.813C30.94 1.262 29.652 0 28.068 0zm.957 29.188a.948.948 0 0 1-.957.937H5.089a.948.948 0 0 1-.957-.937V2.813c0-.517.429-.938.957-.938h22.979c.528 0 .957.421.957.938v26.375z"/><path d="M26.153 3.75H7.004a.947.947 0 0 0-.957.938v7.625c0 .518.429.938.957.938h19.149c.529 0 .957-.42.957-.938V4.688a.948.948 0 0 0-.957-.938zm-.957 7.625H7.962v-5.75h17.234v5.75zM10.834 15.125h-3.83a.947.947 0 0 0-.957.938v3.75c0 .518.429.938.957.938h3.83c.529 0 .957-.42.957-.938v-3.75a.948.948 0 0 0-.957-.938zm-.958 3.75H7.961V17h1.915v1.875zM10.834 22.625h-3.83a.947.947 0 0 0-.957.938v3.75c0 .518.429.937.957.937h3.83c.529 0 .957-.42.957-.937v-3.75a.948.948 0 0 0-.957-.938zm-.958 3.75H7.961V24.5h1.915v1.875zM18.493 15.125h-3.83a.947.947 0 0 0-.957.938v3.75c0 .518.429.938.957.938h3.83c.529 0 .957-.42.957-.938v-3.75a.948.948 0 0 0-.957-.938zm-.957 3.75h-1.915V17h1.915v1.875zM18.493 22.625h-3.83a.947.947 0 0 0-.957.938v3.75c0 .518.429.937.957.937h3.83c.529 0 .957-.42.957-.937v-3.75a.948.948 0 0 0-.957-.938zm-.957 3.75h-1.915V24.5h1.915v1.875zM26.153 15.125h-3.83a.947.947 0 0 0-.957.938v11.25c0 .518.429.937.957.937h3.83c.529 0 .957-.42.957-.937v-11.25a.948.948 0 0 0-.957-.938zm-.957 11.25h-1.915V17h1.915v9.375z"/></symbol>
<symbol id="icon-calendar" viewBox="0 0 34 32"><path d="M28.424 3.307H26.29v-.514c0-.518-.427-.938-.953-.938s-.953.42-.953.938v.514h-2.63v-.514c0-.518-.427-.938-.953-.938s-.953.42-.953.938v.514h-2.63v-.514c0-.518-.427-.938-.953-.938s-.953.42-.953.938v.514h-2.63v-.514c0-.518-.427-.938-.953-.938s-.953.42-.953.938v.514h-2.63v-.514c0-.518-.427-.938-.953-.938s-.953.42-.953.938v.514H4.106C1.842 3.307 0 5.119 0 7.346v18.758c0 2.227 1.842 4.039 4.106 4.039h24.317c2.264 0 4.106-1.812 4.106-4.039V7.346c0-2.227-1.842-4.039-4.106-4.039zm2.2 22.798c0 1.193-.987 2.164-2.2 2.164H4.107c-1.213 0-2.2-.971-2.2-2.164V10.772h28.718v15.333zm0-17.208H1.906v-1.55c0-1.193.987-2.164 2.2-2.164H6.24v.362c0 .518.427.938.953.938s.953-.42.953-.938v-.362h2.63v.362c0 .518.427.938.953.938s.953-.42.953-.938v-.362h2.63v.362c0 .518.427.938.953.938s.953-.42.953-.938v-.362h2.63v.362c0 .518.427.938.953.938s.953-.42.953-.938v-.362h2.63v.362c0 .518.427.938.953.938s.953-.42.953-.938v-.362h2.134c1.213 0 2.2.971 2.2 2.164v1.55z"/><path d="M10.624 12.77H6.863a.946.946 0 0 0-.953.938v3.827c0 .518.427.938.953.938h3.761c.526 0 .953-.42.953-.938v-3.827a.946.946 0 0 0-.953-.938zm-.953 3.828H7.817v-1.952h1.854v1.952zM18.145 12.77h-3.761a.946.946 0 0 0-.953.938v3.827c0 .518.427.938.953.938h3.761c.526 0 .953-.42.953-.938v-3.827a.946.946 0 0 0-.953-.938zm-.953 3.828h-1.854v-1.952h1.854v1.952zM25.666 12.77h-3.76a.946.946 0 0 0-.953.938v3.827c0 .518.427.938.953.938h3.76c.526 0 .953-.42.953-.938v-3.827a.946.946 0 0 0-.953-.938zm-.953 3.828h-1.855v-1.952h1.855v1.952zM10.624 20.041H6.863a.946.946 0 0 0-.953.937v3.828c0 .518.427.937.953.937h3.761c.526 0 .953-.42.953-.937v-3.828a.945.945 0 0 0-.953-.937zm-.953 3.828H7.817v-1.952h1.854v1.952zM18.145 20.041h-3.761a.946.946 0 0 0-.953.937v3.828c0 .518.427.937.953.937h3.761c.526 0 .953-.42.953-.937v-3.828a.945.945 0 0 0-.953-.937zm-.953 3.828h-1.854v-1.952h1.854v1.952zM25.666 20.041h-3.76a.946.946 0 0 0-.953.937v3.828c0 .518.427.937.953.937h3.76c.526 0 .953-.42.953-.937v-3.828a.945.945 0 0 0-.953-.937zm-.953 3.828h-1.855v-1.952h1.855v1.952z"/></symbol>
<symbol id="icon-chart" viewBox="0 0 32 32"><path d="M6.667 12.267h4v13.067h-4V12.267zm7.466-5.6h3.733v18.667h-3.733V6.667zM21.6 17.333h3.733v8H21.6v-8z"/></symbol><symbol id="icon-arrow_left" viewBox="0 0 32 32"><path d="M28 14.667H9.107L13.88 9.88 12 8l-8 8 8 8 1.88-1.88-4.773-4.787H28v-2.667z"/></symbol>
<symbol id="icon-vector_left" viewBox="0 0 19 32"><path stroke-width="5.333" d="M16 2.667 5.333 16 16 29.333"/></symbol>
<symbol id="icon-vector_right" viewBox="0 0 19 32"><path stroke-width="5.333" d="M2.667 2.667 13.334 16 2.667 29.333"/></symbol>
<symbol id="icon-logout" viewBox="0 0 32 32"><path d="M20 28H4V4h16v2h4V0H0v32h24v-6h-4v2z"/><path d="m24.586 8.586-2.828 2.828L24.344 14H14v4h10.344l-2.586 2.586 2.828 2.828L32 16l-7.414-7.414z"/></symbol>
<symbol id="icon-salary" viewBox="0 0 32 32"><path d="m15.413 12.95-.331-.12v-2.017c.368.146.626.35.637.358a.626.626 0 0 0 .795-.965c-.037-.03-.617-.502-1.431-.701v-.306a.625.625 0 0 0-1.25 0v.277a2.54 2.54 0 0 0-.2.05c-.719.216-1.237.822-1.388 1.62-.146.775.107 1.549.644 1.97.245.192.544.368.944.552v2.643c-.283-.04-.495-.136-.833-.357A.625.625 0 1 0 12.316 17c.594.388 1.012.525 1.518.568v.389a.625.625 0 0 0 1.25 0v-.448c1.04-.264 1.706-1.151 1.853-2.027.189-1.126-.422-2.144-1.522-2.532zm-1.581-.696c-.062-.04-.12-.08-.172-.121-.169-.132-.245-.443-.187-.755.02-.105.1-.415.359-.58v1.456zm1.87 3.021c-.057.34-.268.696-.62.898v-2.012c.678.285.661.869.62 1.114z"/><path d="m29.594 13.353-3.969-2.621V.625A.625.625 0 0 0 25 0H10a.625.625 0 0 0-.625.625V3H7a.625.625 0 0 0-.625.625v7.107l-3.969 2.621a.627.627 0 0 0-.281.521v17.5c0 .345.28.625.625.625h10.438a.625.625 0 0 0 0-1.25H4.259l9.112-9.112 2.284 1.509a.621.621 0 0 0 .688 0l2.285-1.509 9.112 9.112h-8.929a.625.625 0 0 0 0 1.25h10.438c.345 0 .625-.28.625-.625v-17.5a.626.626 0 0 0-.28-.522zm-1.478.522-2.491 1.645v-3.29l2.491 1.645zM10.625 1.25h13.75v15.095l-1.75 1.156V3.625A.625.625 0 0 0 22 3H10.625V1.25zm-4.25 10.98v3.29l-2.491-1.645 2.491-1.645zm-3 17.636V15.037l8.931 5.898-8.931 8.931zM16 21.876l-8.375-5.531V4.25h13.75v14.077L16 21.877zm12.625-6.839v14.829l-8.931-8.931 8.931-5.898z"/><path d="M16 30.75c-.164 0-.326.067-.442.183a.63.63 0 0 0 0 .884.63.63 0 0 0 .884 0 .63.63 0 0 0 0-.884.63.63 0 0 0-.442-.183z"/></symbol>
<symbol id="icon-income" viewBox="0 0 32 32"><path d="M11.67 19.346a.469.469 0 0 0-.469-.469H6.655a.469.469 0 0 0-.469.469v3.03c0 .259.21.469.469.469h4.546c.259 0 .469-.21.469-.469v-3.03zm-.937 2.562H7.125v-2.093h3.608v2.093zM22.819 21.835h2.525a.469.469 0 0 0 0-.938h-2.525a.469.469 0 0 0 0 .938zM22.819 19.815h2.525a.469.469 0 0 0 0-.938h-2.525a.469.469 0 0 0 0 .938z"/><path d="M27.364 24.402a.469.469 0 0 0-.469.469V30.9c0 .09-.073.163-.163.163H5.266a.163.163 0 0 1-.163-.163V20.527a.469.469 0 0 0-.938 0V30.9c0 .607.494 1.1 1.1 1.1h21.466c.607 0 1.1-.494 1.1-1.1v-6.029a.469.469 0 0 0-.469-.469zM26.733 15.91h-7.739v-2.378a7.106 7.106 0 0 0 4.104-6.435A7.106 7.106 0 0 0 16-.001a7.078 7.078 0 0 0-3.818 1.113 7.11 7.11 0 0 0-2.571 2.89.468.468 0 1 0 .843.409A6.12 6.12 0 0 1 16 .936c3.397 0 6.16 2.764 6.16 6.16s-2.764 6.16-6.16 6.16a6.167 6.167 0 0 1-6.119-6.877.47.47 0 0 0-.932-.108 7.107 7.107 0 0 0 4.057 7.26v2.378H5.267c-.607 0-1.1.494-1.1 1.1v1.318a.469.469 0 0 0 .938 0v-1.318c0-.09.073-.163.163-.163h6.101l4.279 4.891a.468.468 0 0 0 .706 0l4.279-4.891h6.101c.09 0 .163.073.163.163v5.66a.469.469 0 0 0 .938 0v-5.66c0-.607-.494-1.1-1.1-1.1zM16 20.718l-3.386-3.87h.861c.259 0 .469-.21.469-.469v-2.487a7.099 7.099 0 0 0 4.114 0v2.487c0 .259.21.469.469.469h.861l-3.386 3.87z"/><path d="M6.656 27.454h1.263a.469.469 0 0 0 0-.938H6.656a.469.469 0 0 0 0 .938zM11.202 26.517H9.939a.469.469 0 0 0 0 .938h1.263a.469.469 0 0 0 0-.938zM14.485 27.454a.469.469 0 0 0 0-.938h-1.263a.469.469 0 0 0 0 .938h1.263zM17.768 27.454a.469.469 0 0 0 0-.938h-1.263a.469.469 0 0 0 0 .938h1.263zM6.656 29.98h5.051a.469.469 0 0 0 0-.938H6.656a.469.469 0 0 0 0 .938zM19.824 28.248c0 .955.777 1.731 1.732 1.731.498 0 .947-.211 1.263-.549.316.337.765.549 1.263.549.955 0 1.731-.777 1.731-1.731s-.777-1.732-1.731-1.732c-.498 0-.947.211-1.263.549a1.728 1.728 0 0 0-1.263-.549c-.955 0-1.732.777-1.732 1.732zm4.257-.794a.795.795 0 1 1-.001 1.59.795.795 0 0 1 .001-1.59zm-1.731.794a.795.795 0 1 1-1.59-.001.795.795 0 0 1 1.59.001zM14.447 9.551a.469.469 0 1 0-.513.785c.606.396 1.02.514 1.555.543v.517a.469.469 0 0 0 .938 0v-.554c1.063-.207 1.683-1.082 1.82-1.9.176-1.05-.373-1.962-1.399-2.325-.138-.049-.28-.1-.422-.154V4.215c.358.084.571.265.589.281.19.173.485.16.659-.03a.467.467 0 0 0-.027-.662 2.44 2.44 0 0 0-1.222-.543v-.462a.469.469 0 0 0-.938 0v.497a3.334 3.334 0 0 0-.218.056c-.676.204-1.181.782-1.318 1.509-.125.663.087 1.302.554 1.668.248.195.557.373.981.562v2.848c-.37-.026-.623-.116-1.042-.389zm.639-3.757c-.19-.149-.271-.439-.211-.757.054-.286.244-.63.614-.767v1.781a2.802 2.802 0 0 1-.403-.257zm1.449 1.708c.878.311.824 1.063.787 1.286-.073.437-.378.9-.896 1.082V7.463l.109.039z"/></symbol>
<symbol id="icon-products" viewBox="0 0 35 32"><path d="m35.352 25.028-.135-.728a.982.982 0 0 0-1.144-.787l-2.747.505 1.244-.831a.981.981 0 0 0 .31-1.297l-.376-.666a.99.99 0 0 0-.984-.491c.139-.764.21-1.545.21-2.34a.866.866 0 0 0-.515-.791 3.973 3.973 0 0 0 .032-3.006.631.631 0 0 0-.352-.353 3.938 3.938 0 0 0-1.657-.276 2.739 2.739 0 0 0-3.291-2.541 4.259 4.259 0 0 0-.242-2.28.63.63 0 0 0-.358-.362 4.25 4.25 0 0 0-1.578-.303c-.816 0-1.597.229-2.271.656a5.12 5.12 0 0 0-1.22-1.952.879.879 0 0 0-1.245 0l-2.508 2.514a2.604 2.604 0 0 0-2.189-.623 2.633 2.633 0 0 0-1.419.746 2.636 2.636 0 0 0-1.932-.138V7.747a2.445 2.445 0 0 0-2.399-2.444V4.204a.864.864 0 0 0 .716-.85V.864a.864.864 0 0 0-.864-.863H4.225a.864.864 0 0 0-.863.863v2.49c0 .426.31.78.716.85v1.099a2.446 2.446 0 0 0-2.399 2.444v15.121C.645 23.802.001 25.106.001 26.547c0 2.835 2.489 5.142 5.548 5.142l20.736-.006a2.373 2.373 0 0 0 2.346-2.742l4.142.744a.976.976 0 0 0 .746-.167.988.988 0 0 0 .4-.653l.112-.753a.981.981 0 0 0-.752-1.101l-1.46-.335 2.744-.504c.259-.047.483-.193.632-.409s.204-.476.157-.734zm-5.923-10.031c.312 0 .619.049.913.147a2.933 2.933 0 0 1-.248 2.382h-1.396l.445-.446a.518.518 0 1 0-.734-.732l-.236.236a2.388 2.388 0 0 0-.557-.956 2.898 2.898 0 0 1 1.811-.631zm-2.922-2.596a1.7 1.7 0 0 1 1.697 1.702l-.001.052a3.947 3.947 0 0 0-1.479.877 2.44 2.44 0 0 0-.209-.07 2.402 2.402 0 0 0-1.432-1.781c.302-.469.827-.78 1.424-.78zm-2.738-2.886c.352 0 .698.057 1.031.17a3.247 3.247 0 0 1-.128 2.393 2.753 2.753 0 0 0-.664.92 2.422 2.422 0 0 0-1.377.533 2.707 2.707 0 0 0-.392-.544l1.188-1.191a.518.518 0 1 0-.734-.732l-1.299 1.302a2.7 2.7 0 0 0-.795-.236 3.236 3.236 0 0 1 3.169-2.615zm-3.97 8.011h-.449a.52.52 0 0 0-.964 0h-.528a.517.517 0 0 0-.808-.636l-.488.489a.499.499 0 0 0-.102.147h-1.054a4.09 4.09 0 0 1-.664-2.091h8.219a4.11 4.11 0 0 1-.664 2.091H21.2a.54.54 0 0 0-.102-.147l-.488-.489a.517.517 0 0 0-.808.636zm-1.205-3.127c.195-.724.855-1.258 1.638-1.258s1.443.534 1.638 1.258h-3.276zm1.059-6.371c.493.533.819 1.165.978 1.83a4.298 4.298 0 0 0-.658.943.518.518 0 0 0-.27-.076h-.69a.518.518 0 0 0 0 1.036h.606a4.247 4.247 0 0 0-.08.434 2.702 2.702 0 0 0-.586.229 2.613 2.613 0 0 0-1.595-1.218l-.001-.004a2.635 2.635 0 0 0-.208-.664l2.503-2.509zm-9.365 4.675a1.582 1.582 0 0 1 2.434-1.794.516.516 0 0 0 .742-.129 1.57 1.57 0 0 1 1.322-.71 1.57 1.57 0 0 1 1.574 1.575c0 .268.206.492.473.515a1.577 1.577 0 0 1 1.301.929 2.736 2.736 0 0 0-.599 1.308H14.58a.88.88 0 0 0-.814.548 3.958 3.958 0 0 0-3.684-.4.625.625 0 0 0-.351.352c-.119.301-.199.61-.242.921a1.58 1.58 0 0 1 .527-2.471.518.518 0 0 0 .271-.645zm1.544 4.681.141.142h-1.244a2.937 2.937 0 0 1-.095-2.078 2.902 2.902 0 0 1 3.187.943c.088.397.223.777.397 1.135h-.781l-.872-.874a.518.518 0 1 0-.734.732zm-2.206.142H7.779c.082-.502.384-.93.803-1.182.248.332.572.601.945.783.026.134.059.268.099.399zM4.397 1.036h3.868V3.18H4.397V1.036zm3.152 3.18V5.3H5.113V4.216h2.436zM2.715 9.847h3.364a.518.518 0 0 0 0-1.036H2.715V7.746c0-.777.63-1.409 1.405-1.409h4.423c.775 0 1.405.632 1.405 1.409v1.065h-.967a.518.518 0 0 0 0 1.036h.967v.46a2.61 2.61 0 0 0-.75 2.313l.001.005a2.62 2.62 0 0 0-1.061 2.778 2.76 2.76 0 0 0-.691.543H2.714V9.847zm0 7.135h4.132a2.723 2.723 0 0 0-.113.544h-.087a.866.866 0 0 0-.865.866c0 .823.077 1.63.225 2.42a5.704 5.704 0 0 0-.457-.018c-.627 0-1.224.099-1.681.28-.699.276-.893.668-.935.94a5.708 5.708 0 0 0-.219.116v-5.147zm6.56 6.365c.187.149.301.276.367.368h-.019c-.293 0-.82-.118-1.419-.45a3.688 3.688 0 0 1-.594-.404.518.518 0 0 0-.67 0c-.166.141-.371.28-.594.403-.599.332-1.126.45-1.419.45h-.019c.066-.092.18-.218.367-.368a.517.517 0 0 0-.264-.919c-.506-.059-.825-.188-.975-.282.188-.117.662-.316 1.515-.316.707 0 1.223.149 1.471.288a.52.52 0 0 0 .507 0c.248-.139.764-.288 1.471-.288.853 0 1.327.199 1.515.316-.15.094-.469.222-.975.282a.518.518 0 0 0-.264.919zm-1.036 6.305.018.096c.062.333.192.638.373.904H5.548c-2.488 0-4.511-1.842-4.511-4.106 0-1.547.946-2.897 2.338-3.597.16.119.359.222.596.305a1.23 1.23 0 0 0-.175.512.847.847 0 0 0 .206.639c.203.229.514.345.924.345.547 0 1.266-.217 1.921-.58.151-.083.294-.172.427-.264.134.092.276.18.427.264.656.363 1.374.579 1.921.58.411 0 .722-.116.924-.345a.843.843 0 0 0 .206-.639 1.217 1.217 0 0 0-.175-.512c.237-.083.436-.186.596-.305 1.104.555 1.927 1.519 2.22 2.666l-3.664 1.392a2.37 2.37 0 0 0-1.492 2.645zm19.076.513a1.34 1.34 0 0 1-1.031.481h-.544l-.34-1.834a.518.518 0 0 0-1.019.189l.305 1.646-1.783.001-.23-1.24a.518.518 0 0 0-1.019.189l.195 1.052-4.146.002-.312-1.685a.518.518 0 0 0-1.019.189l.277 1.496-6.054.002a1.34 1.34 0 0 1-1.32-1.093l-.018-.096a1.333 1.333 0 0 1 .841-1.488l2.036-.774.152.819a.519.519 0 0 0 1.019-.189l-.186-1.004 3.023-1.148a.518.518 0 0 0-.368-.968l-1.406.534c-.395-1.397-1.408-2.564-2.752-3.233-.042-.271-.236-.663-.935-.94-.457-.181-1.054-.28-1.681-.28-.431 0-.843.048-1.206.134v-.313a.518.518 0 0 0-.838-.407 12.113 12.113 0 0 1-.135-1.646h16.875a.518.518 0 0 0 0-1.036h-.212c.33-.679.516-1.441.516-2.246a.88.88 0 0 0-.795-.876 1.364 1.364 0 0 1 .945-.374 1.369 1.369 0 0 1 1.371 1.372c0 .268.206.492.473.515.619.054 1.126.52 1.232 1.132a1.34 1.34 0 0 1-.004.477h-.556a.518.518 0 0 0 0 1.036h4.027c-.013.95-.135 1.879-.364 2.779l-2.808 1.657a2.38 2.38 0 0 0-3.132-1.56l-5.783 2.197a.518.518 0 0 0 .368.968l.762-.289.237 1.277a.518.518 0 1 0 1.019-.189l-.271-1.462 4.036-1.533a1.342 1.342 0 0 1 1.799 1.005l1.048 5.659c.072.39-.033.789-.288 1.094zm1.848-4.056a.516.516 0 0 0-.022 1.014l3.857.885-.096.646-4.472-.804-.699-3.774 3.895-2.299.324.575-3.285 2.196a.518.518 0 0 0 .382.941l5.161-.948.115.62-5.159.948z"/></symbol>
<symbol id="icon-alcohol" viewBox="0 0 28 32"><path d="M6.742 2.7c-.228 0-.413.213-.413.475v.201c0 .262.185.475.413.475s.413-.213.413-.475v-.201c0-.262-.185-.475-.413-.475zM5.542 4.281h-.175c-.228 0-.413.213-.413.475s.185.475.413.475h.175c.228 0 .413-.213.413-.475s-.185-.475-.413-.475zM6.185 3.444l-.123-.142c-.161-.185-.422-.185-.584 0s-.161.486 0 .671l.123.142c.081.093.186.139.292.139s.211-.046.292-.139a.526.526 0 0 0 0-.671zM6.185 5.396a.377.377 0 0 0-.584 0l-.123.142a.526.526 0 0 0 0 .671c.081.093.186.139.292.139s.211-.046.292-.139l.123-.142a.526.526 0 0 0 0-.671z"/><path d="M24.749 3.916h-13.94c-.157-1.016-.598-1.946-1.264-2.655C8.78.447 7.784-.001 6.742-.001c-2.279 0-4.133 2.133-4.133 4.756s1.854 4.756 4.133 4.756c.418 0 .83-.073 1.226-.215a5.05 5.05 0 0 0 2.262 1.44c.562.168.989.702 1.088 1.36l.524 3.496c.185 1.235.783 2.306 1.682 3.015.682.538 1.089 1.414 1.089 2.345v7.125c-.315.229-.516.633-.516 1.078l.001.041c-1.031.242-1.88.466-2.525.664a8.88 8.88 0 0 0-1.013.364c-.226.102-.646.293-.646.736 0 .595.672.696 1.212.778.464.07 1.106.128 1.91.174 1.357.076 2.733.089 2.746.089h.006c.014 0 1.389-.013 2.746-.089a21.626 21.626 0 0 0 1.91-.174c.54-.082 1.212-.183 1.212-.778 0-.47-.377-.713-1.754-1.129a45.714 45.714 0 0 0-2.62-.68 1.367 1.367 0 0 0-.326-.899v-7.3c0-.931.407-1.807 1.089-2.345.899-.709 1.496-1.78 1.682-3.015l.524-3.496c.099-.658.526-1.192 1.088-1.36 1.885-.564 3.302-2.274 3.751-4.381l.005-.024a6.85 6.85 0 0 0 .146-1.406v-.443c0-.312-.221-.566-.492-.566zM6.742 8.562c-1.824 0-3.308-1.707-3.308-3.806S4.918.95 6.742.95c.834 0 1.631.359 2.243 1.01.497.528.837 1.21.983 1.957h-.423c-.327-1.448-1.473-2.494-2.803-2.494-1.598 0-2.897 1.496-2.897 3.334s1.3 3.334 2.897 3.334c.119 0 .238-.009.357-.026.079.149.164.293.254.433a2.915 2.915 0 0 1-.611.065zm1.263-5.26a.376.376 0 0 0-.583 0l-.123.142a.526.526 0 0 0-.104.472h-.374c-.271 0-.492.254-.492.566v.443c0 .482.051.952.146 1.405l.005.026c.057.267.129.529.216.782-1.122-.028-2.027-1.086-2.027-2.383 0-1.315.93-2.385 2.072-2.385.877 0 1.642.635 1.939 1.545h-.634a.528.528 0 0 0-.042-.614zm9.054 26.766c1.451.336 2.361.59 2.931.774-1.042.118-2.715.195-4.204.208-1.49-.013-3.162-.09-4.204-.208.545-.176 1.402-.416 2.744-.731.371-.087.628-.487.598-.93l-.001-.026c0-.147.086-.276.21-.315.18-.056.306-.244.306-.459v-7.43c0-.625-.137-1.231-.388-1.771a10.139 10.139 0 0 0 1.468 0 4.202 4.202 0 0 0-.388 1.771v7.526c0 .163.073.314.192.401a.34.34 0 0 1 .133.276l-.001.021c-.024.424.235.807.602.892zm7.357-25.142c0 .285-.021.566-.061.841H11.933c-.228 0-.413.213-.413.475s.185.475.413.475h12.198c-.493 1.499-1.591 2.68-2.999 3.102-.875.262-1.54 1.093-1.693 2.117l-.524 3.496c-.147.98-.621 1.83-1.335 2.393a6.011 6.011 0 0 1-.499.322c-.326.148-2.261.148-2.59 0a5.759 5.759 0 0 1-.5-.322c-.714-.563-1.188-1.413-1.335-2.393l-.524-3.496c-.154-1.024-.818-1.855-1.693-2.117a4.282 4.282 0 0 1-2.08-1.416 5.225 5.225 0 0 1-.918-1.686h2.574c.228 0 .413-.213.413-.475s-.185-.475-.413-.475H7.217a5.821 5.821 0 0 1-.061-.841v-.06h17.262v.06z"/></symbol>
<symbol id="icon-technique" viewBox="0 0 32 32"><path d="M21.709 9.697a.625.625 0 1 0 0 1.25.625.625 0 0 0 0-1.25zM10.353 21.052a.625.625 0 1 0 0 1.25.625.625 0 0 0 0-1.25z"/><path d="M31.254 3.845a.626.626 0 0 0-.585.168l-2.591 2.612h-1.242l-1.367-1.417v-1.26l2.554-2.592a.626.626 0 0 0-.245-1.031 6.245 6.245 0 0 0-1.996-.326 6.18 6.18 0 0 0-5.074 2.604 6.175 6.175 0 0 0-.964 5.265l-4.604 4.604-7.67-7.688V3.275a.626.626 0 0 0-.303-.536L2.748.087a.623.623 0 0 0-.763.094L.217 1.948a.626.626 0 0 0-.094.764l2.651 4.419a.625.625 0 0 0 .536.303h1.508l7.671 7.688-4.586 4.586a6.18 6.18 0 0 0-5.267.966 6.179 6.179 0 0 0-2.603 5.073c0 .683.11 1.354.326 1.996a.625.625 0 0 0 1.036.241l2.591-2.611h1.249l1.423 1.423v1.249l-2.611 2.591a.627.627 0 0 0 .241 1.036 6.24 6.24 0 0 0 1.996.326 6.18 6.18 0 0 0 5.073-2.603 6.18 6.18 0 0 0 .966-5.267l3.683-3.683.844.916-.387.387a.625.625 0 0 0 .884.884l.351-.351 7.916 8.599a3.75 3.75 0 1 0 5.322-5.284l-.02-.019-8.613-7.901.347-.347a.625.625 0 0 0-.884-.884l-.384.385-.918-.843 3.701-3.701a6.257 6.257 0 0 0 7.543-8.034.625.625 0 0 0-.451-.409zM5.518 6.371a.62.62 0 0 0-.442-.177H3.662L1.444 2.49l1.077-1.077 3.697 2.219v1.414c0 .166.066.324.183.441l7.854 7.871-.884.884-7.853-7.87zm15.898 12.191 8.642 7.928a2.5 2.5 0 0 1-3.536 3.536l-7.942-8.627 2.837-2.836zm-.922-.846-2.762 2.762-.844-.916 2.688-2.688.918.843zm5.286-6.466a4.986 4.986 0 0 1-1.597-.261.628.628 0 0 0-.641.15L11.171 23.51a.625.625 0 0 0-.15.642 4.948 4.948 0 0 1-.682 4.515 4.941 4.941 0 0 1-4.057 2.082c-.183 0-.365-.01-.545-.029l1.985-1.97a.626.626 0 0 0 .185-.444v-1.768a.625.625 0 0 0-.183-.442l-1.789-1.789a.625.625 0 0 0-.442-.183H3.725a.628.628 0 0 0-.444.185l-1.97 1.985a4.936 4.936 0 0 1-.029-.545c0-1.628.759-3.107 2.082-4.057a4.948 4.948 0 0 1 4.515-.682.624.624 0 0 0 .641-.15L20.891 8.489a.624.624 0 0 0 .15-.641 4.945 4.945 0 0 1 .681-4.514 4.943 4.943 0 0 1 4.059-2.083c.188 0 .376.01.561.031l-1.944 1.973a.625.625 0 0 0-.18.438v1.768c0 .162.063.318.175.434l1.727 1.789c.118.122.28.191.45.191h1.768a.625.625 0 0 0 .444-.185l1.97-1.985a5.006 5.006 0 0 1-4.971 5.545z"/><path d="m19.499 11.647-7.821 7.821a.625.625 0 0 0 .884.884l7.821-7.821a.625.625 0 0 0-.884-.884zM27.397 28.25a.625.625 0 0 0 .882-.886l-5.634-5.616a.625.625 0 0 0-.883.885l5.634 5.616z"/></symbol>
<symbol id="icon-entertainment" viewBox="0 0 33 32"><path d="m30.415 15.724-1.272-1.285V2.211l1.069-1.08c.21-.212.21-.555 0-.767s-.549-.212-.759 0l-1.069 1.08H16.28L15.008.159c-.21-.212-.549-.212-.759 0s-.21.555 0 .767l1.218 1.23-3.777 16.168a1.552 1.552 0 0 0-.27 1.407c.162.545.606.953 1.157 1.066l2.408.494c.457.094.845.385 1.065.8s.246.903.071 1.339a1.557 1.557 0 0 1-1.771.951L5.328 22.45a2.77 2.77 0 0 0-3.187 1.812c-.266.768-.188 1.613.213 2.318s1.085 1.198 1.875 1.352l.037.007c.711.139 1.315.588 1.657 1.233s.377 1.402.097 2.076a.544.544 0 0 0 .494.752c.21 0 .409-.125.495-.333.406-.977.354-2.073-.141-3.007s-1.37-1.585-2.399-1.786l-.037-.007c-.484-.094-.903-.396-1.149-.828s-.293-.949-.13-1.42a1.697 1.697 0 0 1 1.952-1.11l9.022 1.931a2.627 2.627 0 0 0 2.988-1.604c.295-.736.252-1.559-.12-2.259s-1.027-1.192-1.797-1.35l-2.408-.494a.444.444 0 0 1-.343-.316.46.46 0 0 1 .036-.354l15.954-3.804 1.218 1.23a.532.532 0 0 0 .759 0 .546.546 0 0 0 0-.767zM27.311 2.528l-4.979 5.03-4.979-5.03h9.957zm-10.952.529 5.214 5.268-8.435 8.522 3.221-13.79zm-2.462 14.556 8.435-8.522 5.214 5.268-13.649 3.254zm14.173-4.258-4.979-5.03 4.979-5.03v10.06z"/></symbol>
<symbol id="icon-communication" viewBox="0 0 32 32"><path d="M30.679 0H1.321C.87 0 .502.369.502.819s.369.819.819.819h1.768V31.16c0 .3.164.58.43.724s.587.13.84-.041l3.557-2.369 3.571 2.376a.816.816 0 0 0 .908 0l3.557-2.369 3.571 2.376a.816.816 0 0 0 .908 0l3.557-2.369 3.571 2.376a.831.831 0 0 0 .451.137c.13 0 .266-.034.389-.096a.822.822 0 0 0 .43-.724l-.014-29.522h1.864c.451 0 .819-.369.819-.819S31.129 0 30.679 0zm-3.482 29.631-2.751-1.83a.816.816 0 0 0-.908 0l-3.557 2.376-3.571-2.376a.816.816 0 0 0-.908 0l-3.557 2.369-3.571-2.369a.816.816 0 0 0-.908 0l-2.738 1.823V1.632H27.19l.007 27.999z"/><path d="M8.497 13.081h8.582c.451 0 .819-.369.819-.819s-.369-.819-.819-.819H8.497c-.451 0-.819.369-.819.819s.362.819.819.819zM8.497 15.928h6.431c.451 0 .819-.369.819-.819s-.369-.819-.819-.819H8.497c-.451 0-.819.369-.819.819s.362.819.819.819zM21.366 13.081h2.144c.451 0 .819-.369.819-.819s-.369-.819-.819-.819h-2.144c-.451 0-.819.369-.819.819s.362.819.819.819zM21.366 15.928h2.144c.451 0 .819-.369.819-.819s-.369-.819-.819-.819h-2.144c-.451 0-.819.369-.819.819s.362.819.819.819zM8.497 6.507h8.582c.451 0 .819-.369.819-.819s-.369-.819-.819-.819H8.497c-.451 0-.819.369-.819.819s.362.819.819.819zM8.497 9.347h6.431c.451 0 .819-.369.819-.819s-.369-.819-.819-.819H8.497c-.451 0-.819.369-.819.819s.362.819.819.819zM21.366 6.507h2.144c.451 0 .819-.369.819-.819s-.369-.819-.819-.819h-2.144c-.451 0-.819.369-.819.819s.362.819.819.819zM21.366 9.347h2.144c.451 0 .819-.369.819-.819s-.369-.819-.819-.819h-2.144c-.451 0-.819.369-.819.819s.362.819.819.819zM8.497 19.738h8.582c.451 0 .819-.369.819-.819s-.369-.819-.819-.819H8.497c-.451 0-.819.369-.819.819s.362.819.819.819zM8.497 22.578h6.431c.451 0 .819-.369.819-.819s-.369-.819-.819-.819H8.497c-.451 0-.819.369-.819.819s.362.819.819.819zM21.366 19.738h2.144c.451 0 .819-.369.819-.819s-.369-.819-.819-.819h-2.144c-.451 0-.819.369-.819.819s.362.819.819.819zM21.366 22.578h2.144c.451 0 .819-.369.819-.819s-.369-.819-.819-.819h-2.144c-.451 0-.819.369-.819.819s.362.819.819.819z"/></symbol>
<symbol id="icon-health" viewBox="0 0 29 32"><path d="m28.691 17.829-.508-8.305c-.033-.538-.251-1.029-.615-1.382s-.828-.527-1.308-.487c-.944.077-1.676.968-1.666 2.027l.06 6.771-2.619 3.756c-.418.6-1.112.84-1.741.66l2.849-4.144c.5-.727.417-1.781-.189-2.399-.324-.33-.742-.493-1.179-.459s-.831.261-1.11.638l-4.304 5.806c-.71.958-1.095 2.17-1.084 3.415l.067 7.71c.003.307.226.555.5.555l7.167.011h.001c.14 0 .274-.066.369-.181s.142-.271.13-.428l-.293-3.774 4.758-7.082a4.389 4.389 0 0 0 .717-2.706zm-1.517 2.032-4.873 7.254a.616.616 0 0 0-.099.386l.262 3.378-6.125-.009-.062-7.155a4.458 4.458 0 0 1 .853-2.687l4.304-5.806a.544.544 0 0 1 .845-.066.718.718 0 0 1 .07.885l-3.233 4.703c-.085.123-.12.28-.097.434s.102.29.217.375c1.157.86 2.733.573 3.587-.653l2.726-3.911c.07-.1.107-.224.106-.351l-.062-6.967c-.004-.469.32-.863.738-.898.214-.017.418.059.579.216s.258.374.272.612l.508 8.305c.043.7-.141 1.395-.518 1.955zM8.357 14.504c-.28-.377-.674-.604-1.11-.638s-.855.129-1.179.459c-.606.618-.689 1.672-.189 2.399l2.849 4.144c-.629.18-1.323-.06-1.741-.66l-2.619-3.756.06-6.771c.009-1.06-.723-1.95-1.666-2.027-.479-.039-.945.134-1.308.487s-.582.844-.615 1.382l-.508 8.305c-.059.969.195 1.93.717 2.706l4.758 7.082-.292 3.774c-.012.157.035.312.13.428s.229.181.369.181h.001l7.167-.011c.274 0 .497-.248.5-.555l.067-7.71c.011-1.244-.374-2.457-1.084-3.415L8.36 14.502zm4.324 16.364-6.125.009.262-3.378a.605.605 0 0 0-.099-.386l-4.873-7.254a3.17 3.17 0 0 1-.518-1.955l.508-8.305a.928.928 0 0 1 .272-.612.742.742 0 0 1 .52-.218l.059.002c.418.034.742.428.738.898l-.062 6.967a.606.606 0 0 0 .106.351l2.726 3.911c.855 1.226 2.43 1.513 3.588.653.116-.086.194-.222.217-.375s-.012-.311-.097-.434L6.67 16.039a.718.718 0 0 1 .07-.885c.119-.122.274-.182.435-.169s.307.096.41.235l4.304 5.806a4.46 4.46 0 0 1 .853 2.687l-.062 7.155zM24.319 6.31c0-1.685-.586-3.27-1.65-4.462S20.19 0 18.685 0s-2.92.656-3.984 1.848l-.19.213-.19-.213C13.257.656 11.842 0 10.337 0s-2.92.656-3.984 1.848c-2.197 2.46-2.197 6.464 0 8.924l7.804 8.741c.098.109.226.164.354.164s.256-.055.354-.164l7.804-8.741c1.064-1.192 1.65-2.776 1.65-4.462zM14.51 18.323 7.06 9.979c-1.806-2.023-1.806-5.315 0-7.338.875-.98 2.038-1.52 3.276-1.52s2.401.54 3.276 1.52l.544.61c.094.105.221.164.354.164s.26-.059.354-.164l.544-.61c.875-.98 2.038-1.52 3.276-1.52s2.401.54 3.276 1.52 1.357 2.283 1.357 3.669-.482 2.689-1.357 3.669l-7.45 8.344z"/></symbol>
<symbol id="icon-hobbies" viewBox="0 0 32 32"><path d="M31.02 13.515h-1.907c-.354 0-.665.182-.847.456-1.458-.152-1.652-.386-1.81-.576a2.973 2.973 0 0 0-.756-.653l-4.383-2.662c-.893-2.073-2.386-3.369-3.493-4.096a1.528 1.528 0 0 1-.689-1.282c0-.307.09-.603.261-.857l1.09-1.622c.217-.323.292-.711.211-1.092s-.307-.705-.636-.912a1.425 1.425 0 0 0-.759-.218h-5.178c-.269 0-.531.076-.759.218-.33.207-.556.531-.636.912s-.006.769.211 1.092l1.09 1.622c.171.254.261.551.261.857 0 .52-.258.999-.689 1.282-1.642 1.077-5.311 4.25-3.924 10.452.774 3.459 1.371 5.897 1.731 7.07H1.68a1.36 1.36 0 0 0-1.325 1.077l-.264 1.268c-.084.401.017.812.275 1.13s.641.5 1.05.5H28.01a1.351 1.351 0 0 0 1.325-1.63l-.264-1.268a1.36 1.36 0 0 0-1.325-1.077h-7.729c.107-.351.237-.818.387-1.396h.509a14.91 14.91 0 0 0 4.399-.663l2.913-.367c.174.311.506.522.888.522h1.907c.56 0 1.016-.456 1.016-1.016v-6.054c0-.56-.456-1.017-1.016-1.017zM11.646 1.325a.488.488 0 0 1 .478-.388h5.178a.489.489 0 0 1 .405.762l-.539.803h-4.911l-.539-.803a.485.485 0 0 1-.072-.374zm.47 5.442a2.461 2.461 0 0 0 1.113-2.066c0-.447-.121-.88-.348-1.262h3.664a2.463 2.463 0 0 0-.347 1.262c0 .837.416 1.609 1.113 2.066.287.188.603.419.926.696h-7.043c.328-.282.645-.513.923-.696zm16.038 18.007.264 1.268c.035.168-.038.29-.084.347s-.151.154-.323.154H1.417c-.172 0-.276-.096-.323-.154s-.12-.179-.084-.347l.264-1.268a.417.417 0 0 1 .407-.331h26.066c.196 0 .367.139.407.331zm-9.121-1.268h-8.64c-.193-.575-.683-2.285-1.8-7.275-.471-2.104-.358-4.009.332-5.676h1.727a.469.469 0 0 0 0-.938H9.39c.265-.456.559-.86.864-1.216h8.919c.306.357.6.761.863 1.216h-7.508a.469.469 0 0 0 0 .938h6.212a1.493 1.493 0 0 0-.067.925c.096.39.338.72.681.927l.806.489h-5.21a1.51 1.51 0 0 0-1.419 2.069h-.481c-.412 0-.796.163-1.082.46s-.435.686-.42 1.098a1.5 1.5 0 0 0 1.036 1.371 1.505 1.505 0 0 0 1.358 2.147h.71a1.502 1.502 0 0 0 1.392 2.069h3.388a23.492 23.492 0 0 1-.402 1.395zm6.121-2.984a.449.449 0 0 0-.081.017c-1.348.42-2.748.633-4.16.633h-4.866a.567.567 0 0 1 0-1.132h3.072a.469.469 0 0 0 0-.938h-5.176a.567.567 0 0 1 0-1.132h5.176a.469.469 0 0 0 0-.938h-6.043c-.315 0-.58-.244-.59-.545a.568.568 0 0 1 .565-.587h6.068a.469.469 0 0 0 0-.938h-4.193a.562.562 0 0 1-.565-.587.585.585 0 0 1 .59-.545h6.461c.266 0 .494-.172.566-.429s-.033-.522-.261-.66l-1.876-1.139a.563.563 0 0 1-.191-.777.566.566 0 0 1 .777-.191l4.786 2.907c.198.12.372.271.52.45.383.463.875.741 2.363.904v5.255l-2.942.371zm5.945.064a.08.08 0 0 1-.079.079h-1.907a.08.08 0 0 1-.079-.079v-6.055a.08.08 0 0 1 .079-.079h1.907a.08.08 0 0 1 .079.079v6.055zM22.477 30.488l-2.441-1.964a.469.469 0 0 0-.588.731l2.248 1.808H7.731l2.253-1.812a.469.469 0 0 0-.588-.731L6.95 30.488c-.285.229-.39.6-.269.945s.436.568.802.568h14.461c.366 0 .68-.223.802-.568s.016-.716-.269-.945z"/></symbol>
<symbol id="icon-transport" viewBox="0 0 29 32"><path d="m27.235 12.82-.614-.738-2.156-6.598c-.367-1.115-1.307-1.853-2.355-1.86H6.708c-1.048 0-1.988.745-2.355 1.86L2.227 12l-.885.93c-.771.745-1.217 1.839-1.217 2.988v9.614c.006 1.573 1.132 2.844 2.518 2.844h1.59c1.385 0 2.512-1.272 2.518-2.844v-1.395H21.69v1.395c.006 1.573 1.132 2.844 2.518 2.844h1.59c1.385 0 2.512-1.272 2.518-2.844v-9.867c-.006-1.073-.392-2.099-1.078-2.844zM5.483 5.949c.193-.581.681-.957 1.223-.957h15.408c.542 0 1.03.383 1.223.957l1.879 5.744h-1.404c-.331-2.564-2.434-4.335-4.692-3.952-1.801.301-3.217 1.908-3.482 3.952H3.603l1.879-5.744zm17.101 5.743h-5.728c.331-1.798 1.885-2.947 3.47-2.571 1.132.274 2.018 1.279 2.259 2.571zm-17.04 13.84c-.006.82-.59 1.477-1.313 1.477h-1.59c-.723 0-1.307-.656-1.313-1.477v-1.791c.361.267.837.397 1.313.397h2.903v1.395zm21.564 0c-.006.82-.59 1.477-1.313 1.477h-1.59c-.723 0-1.307-.663-1.313-1.477v-1.395h2.903c.476 0 .952-.13 1.313-.397v1.791zm-1.313-2.763H2.64c-.717.007-1.307-.643-1.313-1.463v-5.388c0-.752.295-1.47.801-1.956l.024-.027.819-.875h22.811l.578.704c.006.014.024.021.03.034.452.486.711 1.162.711 1.867v5.641h.006c-.006.814-.596 1.47-1.313 1.463z"/><path d="M8.074 15.795H3.556c-.331 0-.602.308-.602.684v3.556c0 .376.271.684.602.684h4.518c.331 0 .602-.308.602-.684v-3.556c0-.376-.271-.684-.602-.684zm-.603 3.555H4.158v-2.188h3.313v2.188zM24.88 15.795h-4.518c-.331 0-.602.308-.602.684v3.556c0 .376.271.684.602.684h4.518c.331 0 .602-.308.602-.684v-3.556c0-.376-.271-.684-.602-.684zm-.603 3.555h-3.313v-2.188h3.313v2.188zM17.127 18.667h-5.819c-.331 0-.602.308-.602.684s.271.684.602.684h5.819c.331 0 .602-.308.602-.684s-.271-.684-.602-.684zM17.127 16.547h-5.819c-.331 0-.602.308-.602.684s.271.684.602.684h5.819c.331 0 .602-.308.602-.684s-.271-.684-.602-.684z"/></symbol>
<symbol id="icon-education" viewBox="0 0 32 32"><path d="M31.38 6.431h-2.109v-.72a.62.62 0 0 0-.447-.62 17.485 17.485 0 0 0-4.472-.571c-2.481 0-5.862.558-8.361 3.101C13.51 5.053 10.105 4.52 7.63 4.52a17.44 17.44 0 0 0-4.472.571.62.62 0 0 0-.447.62v.713H.621a.62.62 0 0 0-.62.62v19.812a.62.62 0 0 0 .924.539c.062-.031 6.265-3.424 14.924-1.241h.149a.619.619 0 0 0 .149 0c8.684-2.202 14.887 1.185 14.924 1.241a.619.619 0 0 0 .93-.533V7.05a.62.62 0 0 0-.62-.62zM1.241 25.871V7.672h1.482v15.556a.62.62 0 0 0 .713.62c1.283-.196 2.579-.3 3.877-.31a16.092 16.092 0 0 1 5.297.8A22.805 22.805 0 0 0 1.24 25.87zm6.072-3.567a27.381 27.381 0 0 0-3.374.217V6.202a17.11 17.11 0 0 1 3.678-.409c2.32 0 5.52.533 7.741 3.039l.019 15.451c-1.29-.844-3.809-1.979-8.064-1.979zm9.304-13.472c2.221-2.481 5.421-3.039 7.741-3.039 1.237.004 2.47.141 3.678.409v16.319a27.293 27.293 0 0 0-3.356-.223c-4.23 0-6.755 1.135-8.064 1.979V8.832zm14.136 17.039a22.807 22.807 0 0 0-11.394-1.532 16.134 16.134 0 0 1 5.322-.8 27.12 27.12 0 0 1 3.902.304.62.62 0 0 0 .713-.62V7.673h1.482l-.025 18.199z"/></symbol>
<symbol id="icon-housing" viewBox="0 0 32 32"><path d="M30.414 11.952h-.636V9.589a2.535 2.535 0 0 0-2.533-2.533h-9.181c-.851 0-1.605.422-2.064 1.068a2.53 2.53 0 0 0-2.064-1.068H8.168a.469.469 0 0 0 0 .938h5.768c.88 0 1.596.716 1.596 1.596v4.688l-.03-.028a3.067 3.067 0 0 0-2.069-.817H5.625a1.607 1.607 0 0 0-1.062-1.393 1.56 1.56 0 0 0-.52-.088H3.16V9.589c0-.88.716-1.596 1.596-1.596h1.538a.469.469 0 0 0 0-.938H4.756a2.535 2.535 0 0 0-2.533 2.533v2.363h-.636c-.875 0-1.586.712-1.586 1.586v4.894a3.307 3.307 0 0 0 3.303 3.303h.236l-.514 1.382c-.324.871.343 1.828 1.27 1.828h.754c.422 0 .826-.201 1.081-.538l2.021-2.671h15.699l2.021 2.672c.255.337.659.538 1.081.538h.754c.929 0 1.594-.957 1.27-1.828l-.514-1.382h.236a3.307 3.307 0 0 0 3.303-3.303v-4.894c0-.874-.711-1.586-1.586-1.586zM16.469 9.589c0-.88.716-1.596 1.596-1.596h9.181c.88 0 1.596.716 1.596 1.596v2.363h-.883c-.623 0-1.221.4-1.463.974a1.585 1.585 0 0 0-.12.507h-7.808c-.772 0-1.541.311-2.099.844V9.589zM5.628 14.37h7.805c1.157 0 2.099.942 2.099 2.099v.667H5.629V14.37zm-.246 9.471a.42.42 0 0 1-.333.166h-.754a.421.421 0 0 1-.392-.563l.635-1.708h2.437l-1.593 2.106zm22.323.165h-.754a.419.419 0 0 1-.333-.166l-1.593-2.106h2.437l.635 1.708c.1.27-.106.563-.392.563zm.992-3.209H3.302a2.368 2.368 0 0 1-2.365-2.365v-4.894c0-.358.291-.648.648-.648h2.456c.358 0 .648.291.648.648v4.067c0 .259.21.469.469.469h17.217a.469.469 0 0 0 0-.938h-5.907v-.667c0-1.157.942-2.099 2.099-2.099h7.805v2.766h-2.121a.469.469 0 0 0 0 .938h2.59c.259 0 .469-.21.469-.469v-4.067c0-.358.291-.648.648-.648h2.456c.358 0 .648.291.648.648v4.894a2.368 2.368 0 0 1-2.365 2.365z"/></symbol>
<symbol id="icon-other" viewBox="0 0 32 32"><path d="M31.996 22.334c-.956-7.667-8.11-8.803-10.129-8.971V6.4c0-.048-.067-4.8-5.867-4.8s-5.867 4.752-5.867 4.8v6.963C8.114 13.531.962 14.666.004 22.334L0 22.4v2.133c0 .295.239.533.533.533H3.2v1.067H1.6a.533.533 0 0 0-.533.533c0 1.291.78 3.733 3.733 3.733s3.733-2.442 3.733-3.733A.533.533 0 0 0 8 26.133H6.4v-1.067h8v1.067h-1.6a.533.533 0 0 0-.533.533c0 1.291.78 3.733 3.733 3.733s3.733-2.442 3.733-3.733a.533.533 0 0 0-.533-.533h-1.6v-1.067h8v1.067H24a.533.533 0 0 0-.533.533c0 1.291.78 3.733 3.733 3.733s3.733-2.442 3.733-3.733a.533.533 0 0 0-.533-.533h-1.6v-1.067h2.667a.533.533 0 0 0 .533-.533V22.4c0-.012 0-.053-.004-.066zM11.2 6.4c0-.153.053-3.733 4.8-3.733 4.714 0 4.8 3.583 4.8 3.733v6.933h-1.067v-3.2h-1.067v3.2h-7.467V6.4zm-5.013 9.034a12.37 12.37 0 0 1 4.48-1.035h10.667a12.37 12.37 0 0 1 4.48 1.035 8.3 8.3 0 0 1 5.033 6.432H1.154a8.301 8.301 0 0 1 5.033-6.432zM4.8 29.333A2.447 2.447 0 0 1 2.189 27.2h5.219A2.459 2.459 0 0 1 4.8 29.333zm.533-3.2H4.266v-1.067h1.067v1.067zM16 29.333a2.446 2.446 0 0 1-2.611-2.133h5.219A2.459 2.459 0 0 1 16 29.333zm.533-3.2h-1.067v-1.067h1.067v1.067zm10.667 3.2a2.446 2.446 0 0 1-2.613-2.133h5.221a2.459 2.459 0 0 1-2.608 2.133zm.533-3.2h-1.067v-1.067h1.067v1.067zm3.2-2.133H1.066v-1.067h29.867V24z"/><path d="M16 15.467a2.667 2.667 0 1 0 0 5.334 2.667 2.667 0 0 0 0-5.334zm0 4.266a1.6 1.6 0 1 1 0-3.2 1.6 1.6 0 0 1 0 3.2z"/><path d="M17.067 18.133a1.067 1.067 0 1 1-2.135 0 1.067 1.067 0 0 1 2.135 0zM18.667 8h1.067v1.067h-1.067V8zM18.667 6.4v.533h1.067V6.4c0-.273-.107-2.667-3.733-2.667V4.8c2.475 0 2.667 1.227 2.667 1.6zM11.2 17.6h1.067v1.067H11.2V17.6zM9.067 17.6h1.067v1.067H9.067V17.6zM19.733 17.6H20.8v1.067h-1.067V17.6zM21.867 17.6h1.067v1.067h-1.067V17.6z"/></symbol>
<symbol id="icon-logo" viewBox="0 0 93 32"><path fill="#fb7c2f" d="M14.452 5.161H32a8.258 8.258 0 0 1 8.258 8.258v10.323A8.258 8.258 0 0 1 32 32H14.452a8.258 8.258 0 0 1-8.258-8.258V13.419a8.258 8.258 0 0 1 8.258-8.258z" style="fill:var(--color1, #fb7c2f)"/><path fill="#fb7c2f" d="M8.258 0h17.548a8.258 8.258 0 0 1 8.258 8.258v10.323a8.258 8.258 0 0 1-8.258 8.258H8.258A8.258 8.258 0 0 1 0 18.581V8.258A8.258 8.258 0 0 1 8.258 0z" opacity=".2" style="fill:var(--color1, #fb7c2f)"/><path d="m23.88 21.234 1.327-1.456 2.857 4.995h3.834l-4.534-7.483 4.534-5.935h-3.999l-2.894 4.211-1.124 1.705v-5.916h-3.235v13.418h3.235v-3.539zm15.049 2.644c.086.393.184.691.295.894h3.106v-.157c-.27-.485-.412-1.186-.424-2.101V18.1c-.018-1.081-.396-1.932-1.134-2.553s-1.742-.931-3.013-.931c-1.272 0-2.319.301-3.142.903-.817.602-1.226 1.385-1.226 2.35h3.106c0-.725.369-1.087 1.106-1.087.792 0 1.189.458 1.189 1.373v.525h-.958c-1.524 0-2.685.276-3.483.829s-1.198 1.37-1.198 2.451c0 .86.329 1.576.986 2.147.657.565 1.456.848 2.396.848 1.026 0 1.825-.359 2.396-1.078zm-.692-1.382c-.252.166-.571.249-.958.249-.295 0-.538-.086-.728-.258a.906.906 0 0 1-.286-.691c0-.971.541-1.456 1.622-1.456h.903v1.594c-.111.209-.295.396-.553.562zm14.653-2.635c0 1.548-.35 2.786-1.051 3.714-.694.922-1.634 1.382-2.82 1.382-.915 0-1.668-.335-2.258-1.005v4.654h-3.106V14.801h2.903l.092.922c.596-.737 1.379-1.106 2.35-1.106 1.229 0 2.184.455 2.866 1.364.682.903 1.023 2.147 1.023 3.732v.148zm-3.106-.194c0-1.769-.516-2.654-1.548-2.654-.737 0-1.229.264-1.474.793v3.926c.27.553.768.829 1.493.829.989 0 1.499-.854 1.53-2.562v-.332zm8.792 5.29c1.118 0 2.006-.421 2.663-1.263l.092 1.078h2.912v-9.971h-3.124v6.994c-.301.51-.808.765-1.521.765-.829 0-1.244-.427-1.244-1.281v-6.478h-3.106v6.46c0 1.192.28 2.107.839 2.746.565.633 1.395.949 2.488.949zm12.597-2.986c0-.264-.138-.476-.415-.636s-.802-.326-1.576-.498-1.413-.396-1.917-.673c-.504-.283-.888-.624-1.152-1.023s-.396-.857-.396-1.373c0-.915.378-1.668 1.134-2.258.635-.5 1.434-.791 2.397-.871v-2.265h1.48v2.294c.901.109 1.655.39 2.26.841.799.596 1.198 1.379 1.198 2.35h-3.115c0-.799-.421-1.198-1.262-1.198-.326 0-.599.092-.82.276a.829.829 0 0 0-.332.673c0 .276.135.501.405.673s.7.313 1.29.424a11.32 11.32 0 0 1 1.567.396c1.499.516 2.249 1.441 2.249 2.774 0 .909-.405 1.65-1.216 2.221-.605.43-1.346.698-2.223.804v2.274h-1.48v-2.245a5.134 5.134 0 0 1-1.715-.437c-.67-.307-1.192-.725-1.567-1.253s-.562-1.084-.562-1.668h2.903c.012.461.166.799.461 1.014.295.209.673.313 1.133.313.424 0 .74-.086.949-.258a.821.821 0 0 0 .323-.673zm9.105-7.17v-2.479h-3.106v2.479H75.9v2.156h1.272v4.949c0 1.026.255 1.791.765 2.295s1.299.756 2.368.756c.608 0 1.192-.089 1.751-.267v-2.221a4.546 4.546 0 0 1-.774.055c-.399 0-.667-.074-.802-.221s-.203-.409-.203-.783v-4.562h1.64v-2.156h-1.64zm9.52 9.971c-.111-.203-.209-.501-.295-.894-.571.719-1.37 1.078-2.396 1.078-.94 0-1.739-.283-2.396-.848-.657-.571-.986-1.287-.986-2.147 0-1.081.399-1.898 1.198-2.451s1.96-.829 3.483-.829h.958v-.525c0-.915-.396-1.373-1.189-1.373-.737 0-1.106.363-1.106 1.087h-3.106c0-.965.408-1.748 1.226-2.35.823-.602 1.871-.903 3.142-.903s2.276.31 3.013.931c.737.62 1.115 1.471 1.133 2.553v4.414c.012.915.154 1.616.424 2.101v.157h-3.106zm-1.945-2.027c.387 0 .706-.083.958-.249.258-.166.442-.353.553-.562V20.34h-.903c-1.081 0-1.622.485-1.622 1.456a.9.9 0 0 0 .286.691c.19.172.433.258.728.258z" style="fill:var(--color2, #000)"/></symbol></defs></svg>