<svg xmlns="http://www.w3.org/2000/svg" width="18" height="18" fill="none"><path fill="#2196F3" d="M17.194 7.334c.077 0 .139.065.139.145V9c0 .57-.051 1.126-.148 1.666-.748 4.194-4.274 7.364-8.5 7.334C3.943 17.965.15 13.95.16 8.98.17 4.019 4.01 0 8.746 0c2.32 0 4.425.965 5.97 2.532a.15.15 0 0 1 .003.207l-2.053 2.152a.133.133 0 0 1-.193.003c-.97-.968-2.282-1.562-3.727-1.562-2.984 0-5.388 2.5-5.408 5.629-.02 3.148 2.409 5.707 5.408 5.707 2.433 0 4.491-1.685 5.17-4.002H8.884a.142.142 0 0 1-.138-.145V7.48c0-.08.062-.145.138-.145h8.31Z"/><path fill="#1E88E5" d="M17.194 7.334h-1.037c.077 0 .139.065.139.145V9c0 .57-.051 1.126-.148 1.666-.714 4.002-3.955 7.07-7.921 7.318.151.01.304.015.458.016 4.226.03 7.751-3.14 8.5-7.334.097-.54.147-1.097.147-1.666V7.479a.142.142 0 0 0-.138-.145Z"/><path fill="#F44336" d="M3.834 6.626 1.226 4.651C2.689 1.878 5.508 0 8.746 0c2.32 0 4.425.965 5.97 2.532a.15.15 0 0 1 .003.207l-2.053 2.152a.133.133 0 0 1-.193.003 5.26 5.26 0 0 0-3.728-1.562c-2.178 0-4.055 1.35-4.911 3.294Z"/><path fill="#E53935" d="m3.08 6.056.754.57c.781-1.775 2.414-3.053 4.349-3.263l.043-.005a5.222 5.222 0 0 0-.517-.026c-1.968 0-3.682 1.087-4.628 2.724ZM13.68 2.532a.15.15 0 0 1 .002.207l-1.666 1.747c.16.127.312.263.457.408.054.054.14.053.192-.003L14.72 2.74a.15.15 0 0 0-.003-.207C13.171.965 11.066 0 8.746 0c-.175 0-.347.006-.519.017 2.114.132 4.023 1.065 5.453 2.515Z"/><path fill="#4CAF50" d="M15.044 15.116C13.476 16.89 11.234 18 8.745 18c-3.361 0-6.272-2.025-7.681-4.975l2.662-1.912c.799 2.084 2.745 3.555 5.02 3.555 1.426 0 2.724-.58 3.69-1.526l2.608 1.974Z"/><path fill="#43A047" d="m3.726 11.113-.785.564c.912 1.78 2.705 2.991 4.768 2.991.174 0 .347-.009.517-.026-2.048-.204-3.763-1.606-4.5-3.53ZM8.745 18c2.49 0 4.731-1.11 6.3-2.883l-.64-.484c-1.472 1.92-3.68 3.195-6.177 3.35.172.011.344.017.517.017Z"/><path fill="#FFC107" d="M3.338 9c0 .747.138 1.46.388 2.113l-2.662 1.912A9.312 9.312 0 0 1 .159 9c0-1.577.387-3.06 1.067-4.349l2.608 1.975A5.874 5.874 0 0 0 3.338 9Z"/><path fill="#FFB300" d="m2.941 11.677.785-.564A5.89 5.89 0 0 1 3.338 9c0-.848.177-1.652.496-2.374l-.753-.57a5.866 5.866 0 0 0-.78 2.905 5.862 5.862 0 0 0 .64 2.716Z"/></svg>